<svg version="1.2" xmlns="http://www.w3.org/2000/svg" viewBox="0 0 1024 512" width="1024" height="512"><style>.a{fill:#032941}</style><path class="a" d="m259.3 373.2c68.7-2.2 120.8-52.8 131.7-111.1 12.6-67.9-24.9-129.3-81.6-152.2-57.5-23.2-126.9-5.5-163.5 46-36.4 51.2-36.6 130.7 21.5 184.2l-12.7 22.7c-16.4-14.7-30.4-31.2-40.6-50.7-14.1-27.2-19.8-56.2-18.2-86.7q2.6-51.5 34.8-91.6c23.1-28.8 52.9-47.4 88.8-55.4 47.8-10.7 92.3-1.8 132.2 26.6 33.9 24.2 55.7 57.1 63.7 98 10.4 52.6-2.4 99.7-37.3 140.4-24.1 28.1-55 45.1-91.3 52.3q-3.9 0.8-7.8 1.3-4 0.6-8 0.9-4 0.3-8 0.4-4 0.1-7.9 0c-1.4 0-2.7-0.2-4.4-0.4 2.9-8.4 5.7-16.5 8.6-24.7z"/><path class="a" d="m288 197.4l17.3 7.8c-1 2.7-2.1 5-2.5 7.3q-0.1 0.7-0.1 1.4-0.1 0.7 0 1.4 0.1 0.7 0.3 1.4 0.3 0.7 0.6 1.3c1.6 2.6 4.3 2.2 5.9-0.5 1.2-2.1 2.3-4.3 3.8-7l13.7 8.4c-6 15-11.6 29.5-17.6 43.8-4.6 11.2-12.7 18.6-24.7 21.3q-1.1 0.1-2.2 0.6-1 0.5-1.9 1.3-0.9 0.8-1.5 1.7-0.6 1-0.9 2.1c-4.2 12.2-5.8 12.8-17.6 7.8-0.8-0.3-1.5-0.7-2.6-1.1 4-7.2 8.3-14.2 4.3-22.8q-0.8-1.8-2-3.5-1.1-1.6-2.5-3-1.5-1.4-3.2-2.5-1.6-1.1-3.5-1.8c-10.4-4.3-21.9 2.3-27.5 16q-2.2-1-4.3-1.9c-6.3-2.9-7.8-5-4.8-11.1 2.9-5.8 1-9.8-1.9-14.5-6.2-10-12-20.3-14.9-31.9-0.2-1-0.5-1.9-0.7-2.9-1.6-7.6-1.4-8 5.8-11.1 7.2-3.1 13.7-2.9 19.5 3.3 2.2 2.4 5.3 4 8.1 5.7 8.4 4.7 12 12 12.6 21.3q0 0.7 0.1 1.5 0 0.7 0.1 1.5 0.1 0.7 0.2 1.5 0.1 0.7 0.3 1.4c0.7 2.7 3.1 3.5 4.8 1.3q0.5-0.8 0.8-1.6 0.4-0.8 0.7-1.6 0.3-0.9 0.4-1.8 0.2-0.9 0.2-1.8c0.2-2.4-0.4-4.9-0.8-7.4-1.2-7.7-5.3-13.5-11.7-17.8-2.9-2-5.9-3.7-8.8-5.7-2.8-2-3.7-4.4-2.5-7.8 2.1-5.8 4.5-11.4 6.8-17.1q0.3-0.9 1-1.6 0.6-0.7 1.4-1.2 0.9-0.4 1.8-0.5 1-0.1 1.9 0.1c4.5 1 8.9 2.4 13.9 3.7-1.3 3.1-2.3 5.5-3.3 7.9q-0.2 0.5-0.4 0.9-0.1 0.5-0.3 0.9-0.2 0.5-0.3 1-0.2 0.5-0.3 1c-0.5 2.6 0.8 4.9 3.1 5.4q0.9 0.3 1.8 0.2 0.9-0.1 1.7-0.5 0.7-0.4 1.3-1.1 0.6-0.7 0.8-1.5c1.2-2.9 2.4-5.8 3.6-9 6.7 1.1 12.9 2.3 18.3 6.7-1 2.7-2 5.3-2.8 7.9q-0.2 0.6-0.4 1.1-0.1 0.5-0.2 1.1-0.1 0.5-0.1 1.1-0.1 0.5-0.1 1.1 0 0.8 0.3 1.5 0.3 0.7 0.8 1.3 0.5 0.5 1.1 0.9 0.7 0.3 1.5 0.4c2.1 0.4 3.5-0.5 4.3-2.4 1.2-3 2.5-5.8 4-9.3z"/><path class="a" d="m210 280.9l12.6 4.5c0.4 1.5 0.8 3 1.2 4.4 2.8 11.1 14.1 17.4 24.8 13 4.4-1.9 7.8-1.3 11.6 0.8 3.1 1.9 6.4 3.5 9.8 5.4-4 11.9-8 23.4-11.9 35-6 17.9-12.4 35.7-17.9 53.8-5.5 17.8-19.9 26.7-37.2 26.8-4.5 0.2-9.1-0.5-13.5-1.8-4.4-1.3-8.6-3.2-12.4-5.8-3.7-2.6-7.1-5.8-9.9-9.4-2.8-3.6-5-7.7-6.6-12-3.8-10.2-3.4-20.1 2.1-29.7 9.4-16.3 18.8-32.5 28-48.9 5.9-10.4 11.4-21.1 17-31.6 0.7-1.4 1.4-2.7 2.3-4.5zm-0.8 77.5c-5.2 0.2-9 0-12.8 0.6-17.5 3.3-24.4 16.5-22.1 31.1 1.8 11.4 11.9 20.5 23.1 21.8 11.5 1.4 23.7-5.4 28.5-16 4.6-9.8 1.9-22.6-7.1-30.3-2.9-2.6-3-4.4-1.6-7.6 5.7-12.9 11.2-25.9 16.6-38.9 2.1-5 0.4-7-5.1-6.9z"/><path class="a" d="m217.8 197.1c-8.6-2.5-16-0.1-23.7 3.1-1.8-9.8-2.6-19.2 0.4-28.6 1.4-4.5 5-6 9.2-6.5 4.2-0.5 8.2 0.8 10.1 4.8q0.7 1.5 1.3 2.9 0.6 1.5 1.1 3.1 0.5 1.5 0.8 3.1 0.4 1.5 0.6 3.1c0.6 4.7 0.2 9.6 0.2 15z"/><path class="a" d="m283.3 184.8l-17.9-6.7c2.3-5.7 4.6-11.6 7-17.5 4-9.6 3.5-9.4 14.3-6.4 2.5 0.7 4.8 2.1 7.6 3.4z"/><path class="a" d="m297.8 149.8l-17.7-5.9q0.1-0.5 0.2-0.9 0.1-0.4 0.2-0.8 0.1-0.4 0.3-0.8 0.1-0.4 0.2-0.8c2-4.9 3.8-9.9 6-14.7 2-4.3 5.1-7.7 10.3-7.5 6.6 0.3 10.7 6.7 8.2 13.4-2.3 6.2-5.2 12.2-7.7 18z"/><path class="a" d="m255.2 282.8c0 1.7-0.3 3.3-0.9 4.7-0.6 1.5-1.6 2.9-2.7 4-1.2 1.2-2.5 2.1-4 2.7-1.5 0.6-3.1 0.9-4.7 0.9-6.8 0-12.1-5.4-12.1-12.5 0-7 5.2-12.6 11.9-12.6 6.7 0 12.6 6.1 12.5 12.8z"/><path class="a" d="m303.6 161.7c2.8-6.3 5.2-12.3 8-18.1 1.9-3.9 5.8-5.4 10-4.5q1.4 0.3 2.7 1 1.2 0.7 2.2 1.8 0.9 1.1 1.5 2.4 0.5 1.3 0.6 2.8 0.1 0.6 0 1.2 0 0.6-0.1 1.2-0.1 0.6-0.3 1.2-0.1 0.6-0.4 1.2c-2.2 5.5-4.6 10.9-7 16.4z"/><path class="a" d="m266.2 150.2c-3.4 8.6-6.5 16.1-9.5 23.6l-17.6-5.3c2.6-6.1 5.1-12.3 7.8-18.5 1.6-3.3 3.7-4.4 7.3-3.6 4 1 7.8 2.5 12 3.8z"/><path class="a" d="m308.3 198.6l-17.2-7.5c2.9-6.8 5.9-13.8 9-20.9 6.1-0.7 10.9 1.9 15.6 4.6 2 1.1 1.2 2.7 0.5 4.3-2.7 6.5-5.3 12.9-7.9 19.5z"/><path class="a" d="m269.1 142.8c-3.1-1.1-5.7-2.1-8.3-2.9-2.7-0.8-5.5-1.3-8.8-2.1 2.7-6.3 5.1-12.5 8.2-18.4 2.3-4.4 7.7-5.7 12-3.5 4.4 2.3 5.9 6.4 3.8 11.4-2.1 5.1-4.5 10.2-6.9 15.5z"/><path class="a" d="m338.3 193.5c-3.8-2.2-7.2-4.2-10.6-6.2-2.3-1.4-3-3.3-1.7-5.9 1.6-2.9 2.8-6 4.6-8.8 2.5-3.8 6.4-4.7 10.3-2.5q1.3 0.6 2.3 1.7 0.9 1.1 1.4 2.5 0.5 1.3 0.4 2.8 0 1.4-0.6 2.7c-1.8 4.5-3.9 8.8-6.1 13.7z"/><path class="a" d="m316.1 204.9c1.5-3.7 2.8-6.9 4.3-10q0.2-0.5 0.5-0.9 0.3-0.4 0.6-0.8 0.3-0.4 0.7-0.8 0.3-0.4 0.7-0.8l13.2 7.8c-2.2 4.8-4.3 9.3-6.5 14.2z"/><path class="a" d="m182.4 385.6c0.7-2.8 0.9-5.6 2-8.2 3.5-8.6 12.8-12.2 21.3-8.4 4.6 2 9.2 4.1 11.9 8.6 4.9 7.8 1.4 18.6-7.8 23.6-6.1 3.4-12.7 4.4-19 0.6-5.8-3.6-8.2-9.4-8.4-16.2z"/><path class="a" d="m521.1 229l-19.6-34.6h-14.8v34.6h-20.8v-93.8h39.5q2.1 0 4.2 0.2 2.1 0.2 4.2 0.7 2 0.5 4 1.2 2 0.7 3.8 1.7 1.8 0.9 3.4 2 1.6 1.1 3 2.4 1.5 1.3 2.7 2.8 1.3 1.5 2.3 3.2 1 1.6 1.8 3.4 0.7 1.7 1.3 3.6 0.5 1.9 0.7 3.8 0.3 1.9 0.2 3.8 0.1 2-0.2 4-0.3 1.9-0.8 3.8-0.6 2-1.5 3.8-0.8 1.8-1.9 3.4-1.2 1.6-2.5 3.1-1.3 1.5-2.8 2.8-1.5 1.3-3.2 2.4-1.6 1.1-3.4 1.9l23.6 39.8zm-35-76.1v24.8h15.5q7 0 10.8-3.3 3.8-3.3 3.8-9.2 0.1-1.3-0.1-2.5-0.3-1.3-0.8-2.4-0.5-1.2-1.2-2.2-0.8-1.1-1.7-1.9-3.9-3.3-10.8-3.3z"/><path class="a" d="m574.7 190.2v21.1h43.7v17.7h-63.9v-93.8h63.2v17.7h-43v20.4h38.3v16.8z"/><path class="a" d="m711.9 229h-20.6l-6-20.2h-34.2l-6 20.2h-20l29.5-93.8h27.7zm-44.1-76.4l-11.6 39.1h24l-11.7-39.1z"/><path class="a" d="m737.7 224.5q-2.6-1.5-4.9-3.4-2.4-1.9-4.5-4-2-2.2-3.8-4.7-1.7-2.4-3.1-5.1c-1.9-3.9-3.4-8-4.4-12.2-1-4.3-1.5-8.6-1.5-13 0-4.3 0.5-8.7 1.5-12.9 1-4.2 2.5-8.4 4.4-12.3q1.4-2.6 3.1-5.1 1.8-2.4 3.8-4.6 2.1-2.2 4.5-4 2.3-1.9 4.9-3.4 2.7-1.6 5.7-2.8 2.9-1.1 5.9-1.9 3-0.8 6.2-1.2 3.1-0.3 6.2-0.3 16 0 26.8 8.4 10.7 8.4 14.8 23.9l-20 2.6q-0.5-1.8-1.3-3.4-0.7-1.6-1.7-3.1-1-1.5-2.3-2.8-1.2-1.3-2.6-2.4-1.5-1.1-3.2-1.9-1.6-0.8-3.4-1.3-1.8-0.5-3.6-0.8-1.8-0.2-3.6-0.1-11.4 0-18.2 8-6.8 8-6.8 21.4 0 13.5 6.9 21.5 6.8 8 18.2 8 1.8 0 3.7-0.2 1.8-0.2 3.6-0.8 1.7-0.5 3.4-1.3 1.7-0.8 3.2-1.9 1.4-1.1 2.7-2.4 1.2-1.3 2.3-2.7 1-1.5 1.8-3.2 0.8-1.6 1.3-3.3l20.1 2.5q-4.2 15.6-15.1 23.9-10.9 8.4-26.9 8.4-3.1 0.1-6.3-0.3-3.1-0.3-6.1-1.1-3.1-0.8-6-2-2.9-1.2-5.7-2.7z"/><path class="a" d="m874.7 172.2v-37h20.8v93.8h-20.8v-38.3h-36.6v38.3h-20.7v-93.8h20.7v37z"/><path class="a" d="m483 286.8l-7.3-12.1h-6.5v12.1h-3.8v-29.4h10.5q0.6 0 1.2 0.1 0.7 0.1 1.3 0.2 0.6 0.1 1.1 0.4 0.6 0.2 1.2 0.5 1 0.5 1.8 1.3 0.9 0.8 1.5 1.8 0.6 0.9 0.9 2.1 0.3 1.1 0.3 2.2 0 0.7-0.1 1.4-0.1 0.6-0.3 1.3-0.2 0.6-0.5 1.2-0.3 0.6-0.7 1.1-0.4 0.6-0.9 1-0.4 0.5-0.9 0.9-0.6 0.4-1.1 0.7-0.6 0.3-1.2 0.5l7.8 12.8zm-13.9-26v10.5h6.6q0.5 0 1.1-0.1 0.5-0.1 1.1-0.2 0.5-0.2 1-0.5 0.5-0.3 0.9-0.6 0.7-0.8 1.1-1.8 0.4-1 0.4-2.1 0-1.1-0.4-2.1-0.4-1-1.1-1.7-0.4-0.4-0.9-0.7-0.5-0.3-1-0.4-0.6-0.2-1.1-0.3-0.6-0.1-1.1 0z"/><path class="a" d="m507.9 277.4h-15.8q0 0.7 0.2 1.3 0.1 0.7 0.4 1.4 0.2 0.6 0.6 1.2 0.3 0.6 0.8 1.1 0.4 0.4 0.9 0.8 0.6 0.3 1.2 0.5 0.5 0.3 1.2 0.4 0.6 0.1 1.2 0 0.4 0.1 0.9 0 0.4 0 0.9-0.2 0.4-0.1 0.8-0.2 0.4-0.2 0.8-0.4 0.4-0.2 0.7-0.5 0.3-0.2 0.6-0.5 0.3-0.3 0.5-0.7 0.2-0.3 0.4-0.7l3.2 0.5q-0.2 0.7-0.5 1.3-0.4 0.6-0.8 1.2-0.4 0.5-0.9 1-0.6 0.5-1.1 0.8-0.6 0.4-1.3 0.7-0.7 0.3-1.4 0.5-0.6 0.2-1.4 0.3-0.7 0.1-1.4 0.1-0.7 0-1.4-0.1-0.7-0.1-1.3-0.2-0.7-0.2-1.3-0.5-0.7-0.2-1.3-0.6-0.5-0.3-1.1-0.8-0.5-0.4-0.9-0.9-0.5-0.5-0.9-1-0.3-0.6-0.6-1.2-0.6-1.3-1-2.7-0.3-1.5-0.3-2.9 0-1.5 0.3-2.9 0.4-1.5 1-2.8 0.3-0.6 0.6-1.1 0.4-0.6 0.8-1.1 0.5-0.5 1-0.9 0.5-0.4 1.1-0.8 1.1-0.6 2.4-1 1.3-0.3 2.6-0.3 1.4 0 2.7 0.3 1.3 0.3 2.4 1 0.6 0.3 1.1 0.7 0.5 0.4 0.9 0.8 0.4 0.5 0.8 1 0.4 0.5 0.7 1.1 0.3 0.6 0.5 1.3 0.2 0.6 0.4 1.3 0.1 0.7 0.2 1.4 0.1 0.7 0.1 1.4 0 0.2 0 0.4-0.1 0.2-0.1 0.4 0 0.2 0 0.4-0.1 0.2-0.1 0.4zm-13.6-7.3q-0.5 0.5-0.8 1-0.4 0.5-0.6 1-0.3 0.6-0.4 1.2-0.2 0.5-0.2 1.2h12.3q0-0.7-0.2-1.2-0.2-0.6-0.4-1.2-0.3-0.5-0.6-1-0.4-0.5-0.8-1-0.4-0.4-0.9-0.7-0.5-0.3-1.1-0.5-0.5-0.2-1.1-0.3-0.5-0.1-1.1 0-0.6-0.1-1.1 0-0.6 0.1-1.1 0.3-0.6 0.2-1.1 0.5-0.4 0.3-0.8 0.7z"/><path class="a" d="m515.6 262h-3.6v-3.7h3.6zm0 24.8h-3.6v-21h3.5z"/><path class="a" d="m520.8 286.8v-21h3.3v3.8h0.2q2.8-4.2 7.1-4.2 0.7 0 1.4 0.1 0.7 0.1 1.4 0.4 0.7 0.3 1.3 0.7 0.5 0.5 1 1 0.5 0.7 0.9 1.4 0.4 0.7 0.6 1.4 0.3 0.8 0.4 1.6 0.1 0.8 0 1.6v13.3h-3.6v-12.9q0.1-0.5 0-1.1-0.1-0.5-0.2-1-0.2-0.5-0.4-1-0.2-0.5-0.5-0.9-0.3-0.4-0.7-0.6-0.4-0.3-0.8-0.5-0.5-0.2-0.9-0.3-0.5 0-1 0-0.4 0-0.8 0-0.4 0.1-0.7 0.2-0.4 0.1-0.8 0.3-0.4 0.1-0.7 0.3-0.4 0.3-0.7 0.5-0.3 0.3-0.6 0.6-0.2 0.3-0.5 0.6-0.2 0.3-0.4 0.7-0.2 0.4-0.3 0.8-0.2 0.4-0.3 0.8-0.1 0.4-0.1 0.8-0.1 0.5-0.1 0.9v11.7z"/><path class="a" d="m550.4 260.4q-0.2 0-0.5 0-0.2 0-0.4 0.1-0.2 0.1-0.4 0.2-0.2 0.1-0.3 0.3-0.2 0.2-0.3 0.4-0.1 0.2-0.1 0.5-0.1 0.2-0.1 0.5 0 0.2 0 0.5v2.9h5.9v3h-5.9v18h-3.6v-18h-4.2v-3h4.2v-2.9q0-0.5 0-1.1 0.1-0.5 0.3-1 0.2-0.5 0.4-1 0.3-0.5 0.6-0.9 0.4-0.4 0.8-0.7 0.4-0.2 0.9-0.4 0.5-0.2 1-0.3 0.5-0.1 1 0h4.7v3z"/><path class="a" d="m559.8 285.9q-0.6-0.4-1.1-0.8-0.5-0.4-1-0.9-0.4-0.5-0.8-1.1-0.3-0.5-0.6-1.1-0.7-1.3-1-2.8-0.3-1.4-0.3-2.9 0-1.4 0.3-2.9 0.3-1.4 1-2.7 0.3-0.6 0.6-1.2 0.4-0.5 0.8-1 0.5-0.5 1-0.9 0.5-0.5 1.1-0.8 1.2-0.7 2.5-1 1.3-0.4 2.7-0.4 1.3 0 2.7 0.4 1.3 0.3 2.5 1 0.5 0.3 1 0.8 0.6 0.4 1 0.9 0.4 0.5 0.8 1 0.4 0.6 0.7 1.2 0.6 1.3 0.9 2.7 0.3 1.5 0.3 2.9 0 1.5-0.3 2.9-0.3 1.5-0.9 2.8-0.3 0.6-0.7 1.1-0.4 0.6-0.8 1.1-0.4 0.5-1 0.9-0.5 0.4-1 0.8-1.2 0.6-2.5 1-1.4 0.3-2.7 0.3-1.4 0-2.7-0.3-1.3-0.4-2.5-1zm9.9-3.9q0.8-1.2 1.2-2.7 0.5-1.4 0.5-3 0-1.5-0.5-2.9-0.4-1.5-1.2-2.8-0.9-0.9-2.2-1.5-1.2-0.5-2.5-0.5-1.4 0-2.6 0.5-1.2 0.6-2.1 1.5-0.9 1.3-1.3 2.8-0.4 1.4-0.4 2.9 0 1.6 0.4 3 0.4 1.5 1.3 2.7 0.9 1 2.1 1.6 1.2 0.5 2.6 0.5 1.3 0 2.5-0.5 1.3-0.6 2.2-1.6z"/><path class="a" d="m578.7 286.8v-21h3.4v3.8h0.2q0.3-0.4 0.6-0.8 0.3-0.4 0.7-0.7 0.3-0.4 0.7-0.7 0.4-0.3 0.8-0.6 0.4-0.3 0.8-0.4 0.4-0.2 0.9-0.3 0.4-0.2 0.9-0.2 0.4-0.1 0.9-0.1h1.7v3.3h-1.9q-0.6-0.1-1.2 0-0.6 0.1-1.2 0.3-0.6 0.3-1.1 0.6-0.5 0.3-1 0.8-0.4 0.4-0.7 1-0.3 0.5-0.5 1.1-0.2 0.6-0.3 1.2-0.1 0.6-0.1 1.2v11.5z"/><path class="a" d="m596.1 285.9q-0.5-0.4-1.1-0.8-0.5-0.4-0.9-0.9-0.5-0.5-0.8-1.1-0.4-0.5-0.7-1.1-0.6-1.3-1-2.8-0.3-1.4-0.3-2.9 0-1.4 0.3-2.9 0.4-1.4 1-2.7 0.3-0.6 0.7-1.2 0.3-0.5 0.8-1 0.4-0.5 0.9-0.9 0.5-0.5 1.1-0.8 0.6-0.3 1.2-0.6 0.6-0.3 1.3-0.5 0.6-0.1 1.3-0.2 0.6-0.1 1.3-0.1 0.7 0 1.5 0.1 0.7 0.1 1.4 0.3 0.7 0.2 1.4 0.6 0.7 0.3 1.3 0.7 0.6 0.5 1.1 1 0.5 0.5 0.9 1.2 0.4 0.6 0.7 1.2 0.3 0.7 0.5 1.4l-3.1 0.6q-0.2-0.4-0.4-0.8-0.2-0.5-0.4-0.8-0.3-0.4-0.6-0.7-0.4-0.3-0.7-0.6-0.4-0.3-0.9-0.5-0.4-0.2-0.8-0.3-0.5-0.1-1-0.2-0.4 0-0.9 0-0.7 0-1.3 0.1-0.6 0.1-1.2 0.4-0.6 0.2-1.2 0.6-0.5 0.4-0.9 0.9-0.5 0.6-0.8 1.3-0.3 0.7-0.6 1.4-0.2 0.7-0.3 1.5 0 0.7 0 1.5 0 0.8 0 1.5 0.1 0.8 0.3 1.5 0.3 0.7 0.6 1.4 0.4 0.7 0.8 1.3 0.5 0.5 1 0.9 0.5 0.4 1.1 0.7 0.6 0.3 1.3 0.4 0.7 0.1 1.3 0.1 0.5 0 1-0.1 0.5 0 0.9-0.2 0.5-0.1 0.9-0.3 0.4-0.2 0.8-0.4 0.4-0.3 0.8-0.6 0.3-0.3 0.6-0.7 0.2-0.4 0.4-0.8 0.2-0.4 0.4-0.8l3.1 0.5q-0.2 0.8-0.5 1.4-0.3 0.7-0.7 1.3-0.4 0.6-0.9 1.2-0.5 0.5-1.1 0.9-0.6 0.5-1.3 0.8-0.7 0.3-1.4 0.5-0.7 0.3-1.5 0.4-0.7 0.1-1.5 0-0.7 0.1-1.3 0-0.7-0.1-1.4-0.3-0.6-0.2-1.3-0.4-0.6-0.3-1.2-0.6z"/><path class="a" d="m631.7 277.4h-15.8q0.1 0.7 0.2 1.3 0.1 0.7 0.4 1.4 0.2 0.6 0.6 1.2 0.4 0.6 0.8 1.1 0.5 0.4 1 0.8 0.5 0.3 1.1 0.5 0.6 0.3 1.2 0.4 0.6 0.1 1.3 0 0.4 0.1 0.8 0 0.5 0 0.9-0.2 0.4-0.1 0.9-0.2 0.4-0.2 0.7-0.4 0.4-0.2 0.7-0.5 0.4-0.2 0.7-0.5 0.2-0.3 0.5-0.7 0.2-0.3 0.4-0.7l3.2 0.5q-0.3 0.7-0.6 1.3-0.3 0.6-0.8 1.2-0.4 0.5-0.9 1-0.5 0.5-1.1 0.8-0.6 0.4-1.3 0.7-0.6 0.3-1.3 0.5-0.7 0.2-1.4 0.3-0.7 0.1-1.4 0.1-0.7 0-1.4-0.1-0.7-0.1-1.4-0.2-0.6-0.2-1.3-0.5-0.6-0.2-1.2-0.6-0.6-0.3-1.1-0.8-0.5-0.4-1-0.9-0.4-0.5-0.8-1-0.4-0.6-0.7-1.2-0.6-1.3-0.9-2.7-0.3-1.5-0.3-2.9 0-1.5 0.3-2.9 0.3-1.5 0.9-2.8 0.3-0.6 0.7-1.1 0.4-0.6 0.8-1.1 0.4-0.5 0.9-0.9 0.6-0.4 1.1-0.8 1.2-0.6 2.5-1 1.3-0.3 2.6-0.3 1.3 0 2.6 0.3 1.3 0.3 2.5 1 0.5 0.3 1 0.7 0.5 0.4 1 0.8 0.4 0.5 0.8 1 0.3 0.5 0.6 1.1 0.3 0.6 0.5 1.3 0.3 0.6 0.4 1.3 0.2 0.7 0.3 1.4 0 0.7 0 1.4 0 0.2 0 0.4 0 0.2-0.1 0.4 0 0.2 0 0.4-0.1 0.2-0.1 0.4zm-13.6-7.3q-0.5 0.5-0.8 1-0.3 0.5-0.6 1-0.3 0.6-0.4 1.2-0.2 0.5-0.2 1.2h12.3q0-0.7-0.2-1.2-0.1-0.6-0.4-1.2-0.2-0.5-0.6-1-0.3-0.5-0.8-1-0.4-0.4-0.9-0.7-0.5-0.3-1-0.5-0.5-0.2-1.1-0.3-0.6-0.1-1.2 0-0.5-0.1-1.1 0-0.6 0.1-1.1 0.3-0.5 0.2-1 0.5-0.5 0.3-0.9 0.7z"/><path class="a" d="m635.6 286.8v-21h3.4v3.6h0.2q0.3-0.4 0.5-0.9 0.3-0.4 0.7-0.7 0.3-0.4 0.7-0.7 0.4-0.4 0.9-0.6 0.4-0.3 0.8-0.5 0.5-0.2 0.9-0.3 0.5-0.1 1-0.2 0.5 0 0.9 0 0.5-0.1 1 0 0.5 0.1 0.9 0.2 0.5 0.2 0.9 0.4 0.4 0.2 0.8 0.5 0.4 0.3 0.7 0.7 0.4 0.4 0.7 0.8 0.2 0.4 0.4 0.8 0.3 0.5 0.4 1h0.2c1.8-3 4.1-4.4 7.1-4.4q0.6-0.1 1.3 0 0.7 0.2 1.3 0.4 0.7 0.3 1.2 0.7 0.6 0.5 1 1 0.5 0.6 0.8 1.3 0.4 0.7 0.6 1.5 0.2 0.7 0.3 1.5 0.1 0.8 0 1.5v13.5h-3.5v-13q0-0.5 0-1.1-0.1-0.5-0.2-1-0.1-0.5-0.3-1-0.2-0.4-0.5-0.9-0.3-0.3-0.6-0.6-0.4-0.2-0.8-0.4-0.3-0.2-0.8-0.2-0.4-0.1-0.8-0.1-0.6 0-1.1 0.1-0.6 0.1-1.1 0.4-0.5 0.2-0.9 0.5-0.5 0.4-0.9 0.8-0.3 0.5-0.6 1-0.3 0.5-0.5 1.1-0.2 0.6-0.3 1.2-0.1 0.6-0.1 1.2v12h-3.6v-13q0.1-0.5 0-1 0-0.5-0.1-1-0.2-0.5-0.4-1-0.2-0.5-0.5-0.9-0.2-0.3-0.6-0.6-0.3-0.3-0.7-0.4-0.4-0.2-0.8-0.3-0.4-0.1-0.9 0-0.5 0-1.1 0.1-0.5 0.1-1 0.3-0.5 0.2-1 0.6-0.4 0.3-0.8 0.8-0.4 0.4-0.7 1-0.3 0.5-0.5 1.1-0.2 0.5-0.2 1.2-0.1 0.6-0.1 1.2v12z"/><path class="a" d="m688.2 277.4h-15.8q0 0.7 0.2 1.3 0.1 0.7 0.4 1.4 0.2 0.6 0.6 1.2 0.4 0.6 0.8 1.1 0.5 0.4 1 0.8 0.5 0.3 1.1 0.5 0.6 0.3 1.2 0.4 0.6 0.1 1.2 0 0.5 0.1 0.9 0 0.5 0 0.9-0.2 0.4-0.1 0.8-0.2 0.5-0.2 0.8-0.4 0.4-0.2 0.7-0.5 0.4-0.2 0.6-0.5 0.3-0.3 0.6-0.7 0.2-0.3 0.4-0.7l3.2 0.5q-0.3 0.7-0.6 1.3-0.3 0.6-0.8 1.2-0.4 0.5-0.9 1-0.5 0.5-1.1 0.8-0.6 0.4-1.3 0.7-0.6 0.3-1.3 0.5-0.7 0.2-1.4 0.3-0.7 0.1-1.5 0.1-0.7 0-1.3-0.1-0.7-0.1-1.4-0.2-0.7-0.2-1.3-0.5-0.6-0.2-1.2-0.6-0.6-0.3-1.1-0.8-0.5-0.4-1-0.9-0.4-0.5-0.8-1-0.4-0.6-0.7-1.2-0.6-1.3-0.9-2.7-0.3-1.5-0.3-2.9 0-1.5 0.3-2.9 0.3-1.5 0.9-2.8 0.3-0.6 0.7-1.1 0.3-0.6 0.8-1.1 0.4-0.5 0.9-0.9 0.5-0.4 1.1-0.8 1.2-0.6 2.5-1 1.2-0.3 2.6-0.3 1.3 0 2.6 0.3 1.3 0.3 2.5 1 0.5 0.3 1 0.7 0.5 0.4 0.9 0.8 0.5 0.5 0.8 1 0.4 0.5 0.7 1.1 0.3 0.6 0.5 1.3 0.3 0.6 0.4 1.3 0.2 0.7 0.2 1.4 0.1 0.7 0.1 1.4 0 0.2 0 0.4 0 0.2-0.1 0.4 0 0.2 0 0.4-0.1 0.2-0.1 0.4zm-13.7-7.3q-0.4 0.5-0.7 1-0.4 0.5-0.6 1-0.3 0.6-0.4 1.2-0.2 0.5-0.3 1.2h12.4q0-0.7-0.2-1.2-0.1-0.6-0.4-1.2-0.2-0.5-0.6-1-0.3-0.5-0.8-1-0.4-0.4-0.9-0.7-0.5-0.3-1-0.5-0.6-0.2-1.1-0.3-0.6-0.1-1.2 0-0.6-0.1-1.1 0-0.6 0.1-1.1 0.3-0.6 0.2-1 0.5-0.5 0.3-1 0.7z"/><path class="a" d="m692.1 286.8v-21h3.4v3.8h0.2q2.7-4.2 7.1-4.2 0.7 0 1.4 0.1 0.7 0.1 1.4 0.4 0.6 0.3 1.2 0.7 0.6 0.5 1.1 1 0.5 0.7 0.9 1.4 0.3 0.7 0.6 1.4 0.2 0.8 0.3 1.6 0.1 0.8 0.1 1.6v13.3h-3.6v-12.9q0-0.5 0-1.1-0.1-0.5-0.2-1-0.2-0.5-0.4-1-0.3-0.5-0.6-0.9-0.3-0.4-0.7-0.6-0.3-0.3-0.8-0.5-0.4-0.2-0.9-0.3-0.4 0-0.9 0-0.4 0-0.8 0-0.4 0.1-0.8 0.2-0.4 0.1-0.7 0.3-0.4 0.1-0.8 0.3-0.3 0.3-0.6 0.5-0.3 0.3-0.6 0.6-0.3 0.3-0.5 0.6-0.2 0.3-0.4 0.7-0.2 0.4-0.4 0.8-0.1 0.4-0.2 0.8-0.1 0.4-0.2 0.8 0 0.5 0 0.9v11.7z"/><path class="a" d="m721.1 286.8c-3.4 0-5-1.8-5-5.4v-12.6h-4.2v-3h4.2l1.7-5.6h1.9v5.6h6.1v3h-6.1v12.6q0 0.2 0 0.4 0 0.3 0.1 0.5 0 0.2 0.1 0.4 0.1 0.3 0.3 0.4 0.1 0.2 0.3 0.3 0.2 0.1 0.4 0.2 0.2 0 0.4 0.1 0.3 0 0.5 0h4.2v3.1z"/><path class="a" d="m742.7 277.8h-14.7v-3.4h14.7z"/><path class="a" d="m751.1 286.8h-3.5v-29.4h3.5z"/><path class="a" d="m774.5 277.4h-15.8q0.1 0.7 0.2 1.3 0.1 0.7 0.4 1.4 0.3 0.6 0.6 1.2 0.4 0.6 0.8 1.1 0.5 0.4 1 0.8 0.5 0.3 1.1 0.5 0.6 0.3 1.2 0.4 0.6 0.1 1.3 0 0.4 0.1 0.8 0 0.5 0 0.9-0.2 0.4-0.1 0.9-0.2 0.4-0.2 0.8-0.4 0.3-0.2 0.7-0.5 0.3-0.2 0.6-0.5 0.2-0.3 0.5-0.7 0.2-0.3 0.4-0.7l3.2 0.5q-0.2 0.7-0.6 1.3-0.3 0.6-0.7 1.2-0.5 0.5-1 1-0.5 0.5-1.1 0.8-0.6 0.4-1.2 0.7-0.7 0.3-1.4 0.5-0.7 0.2-1.4 0.3-0.7 0.1-1.4 0.1-0.7 0-1.4-0.1-0.7-0.1-1.4-0.2-0.6-0.2-1.3-0.5-0.6-0.2-1.2-0.6-0.6-0.3-1.1-0.8-0.5-0.4-1-0.9-0.4-0.5-0.8-1-0.4-0.6-0.7-1.2-0.6-1.3-0.9-2.7-0.3-1.5-0.3-2.9 0-1.5 0.3-2.9 0.3-1.5 0.9-2.8 0.3-0.6 0.7-1.1 0.4-0.6 0.8-1.1 0.4-0.5 1-0.9 0.5-0.4 1-0.8 1.2-0.6 2.5-1 1.3-0.3 2.6-0.3 1.3 0 2.6 0.3 1.3 0.3 2.5 1 0.5 0.3 1 0.7 0.5 0.4 1 0.8 0.4 0.5 0.8 1 0.3 0.5 0.6 1.1 0.3 0.6 0.6 1.3 0.2 0.6 0.3 1.3 0.2 0.7 0.3 1.4 0 0.7 0 1.4 0 0.2 0 0.4 0 0.2-0.1 0.4 0 0.2 0 0.4-0.1 0.2-0.1 0.4zm-13.6-7.3q-0.5 0.5-0.8 1-0.4 0.5-0.6 1-0.3 0.6-0.4 1.2-0.2 0.5-0.2 1.2h12.3q0-0.7-0.2-1.2-0.1-0.6-0.4-1.2-0.2-0.5-0.6-1-0.3-0.5-0.8-1-0.4-0.4-0.9-0.7-0.5-0.3-1-0.5-0.6-0.2-1.1-0.3-0.6-0.1-1.2 0-0.6-0.1-1.1 0-0.6 0.1-1.1 0.3-0.6 0.2-1 0.5-0.5 0.3-0.9 0.7z"/><path class="a" d="m796.7 284.1v2.7h-1.5q-0.3 0.1-0.7 0-0.3 0-0.7-0.2-0.3-0.1-0.6-0.3-0.3-0.1-0.6-0.4-0.3-0.3-0.4-0.6-0.2-0.3-0.3-0.6-0.2-0.4-0.2-0.7-0.1-0.4 0-0.7v-0.5h-0.2q-0.3 0.6-0.7 1-0.3 0.5-0.7 0.9-0.4 0.4-0.9 0.8-0.4 0.3-1 0.6-0.4 0.3-1 0.5-0.5 0.2-1 0.4-0.6 0.1-1.1 0.2-0.6 0.1-1.1 0.1-0.7 0-1.3-0.1-0.7-0.1-1.3-0.3-0.6-0.2-1.2-0.6-0.6-0.3-1.1-0.7-0.5-0.4-0.8-1-0.4-0.5-0.7-1.1-0.2-0.6-0.3-1.2-0.1-0.6-0.1-1.3 0-0.7 0.1-1.4 0.1-0.6 0.4-1.3 0.3-0.6 0.7-1.2 0.5-0.5 1-1 0.6-0.5 1.3-0.8 0.7-0.4 1.4-0.6 0.8-0.3 1.5-0.4 0.8-0.1 1.6-0.1h5.8v-0.8q0-0.5 0-1-0.1-0.5-0.2-0.9-0.2-0.5-0.4-0.9-0.3-0.4-0.6-0.8-0.3-0.3-0.7-0.6-0.5-0.2-0.9-0.4-0.5-0.1-1-0.2-0.4-0.1-0.9 0-0.5 0-0.9 0-0.5 0.1-0.9 0.2-0.4 0.1-0.8 0.3-0.4 0.1-0.8 0.4-0.4 0.2-0.7 0.5-0.3 0.3-0.5 0.7-0.3 0.4-0.5 0.8-0.1 0.3-0.2 0.8l-3.2-0.6q0.2-0.7 0.4-1.3 0.3-0.6 0.7-1.2 0.4-0.6 0.9-1.1 0.4-0.5 1-1 0.6-0.4 1.2-0.8 0.7-0.3 1.4-0.5 0.7-0.2 1.4-0.3 0.8-0.1 1.5-0.1 0.8 0 1.7 0.1 0.8 0.1 1.6 0.4 0.8 0.3 1.5 0.7 0.7 0.4 1.3 1 0.6 0.6 1 1.3 0.4 0.6 0.7 1.4 0.3 0.7 0.4 1.5 0.1 0.8 0.1 1.6v9.2q0 0.2 0 0.3 0 0.2 0 0.3 0.1 0.2 0.1 0.3 0.1 0.1 0.2 0.2 0.1 0.1 0.2 0.2 0.1 0.1 0.2 0.1 0.2 0.1 0.3 0.1 0.1 0 0.3 0zm-8.9-0.8q0.4-0.2 0.7-0.4 0.3-0.3 0.6-0.6 0.3-0.3 0.6-0.6 0.2-0.3 0.4-0.7 0.3-0.4 0.4-0.8 0.2-0.4 0.3-0.8 0.1-0.5 0.2-0.9 0-0.5 0-0.9v-0.4h-5.7q-0.4 0-0.8 0-0.5 0.1-0.9 0.2-0.4 0.1-0.8 0.3-0.4 0.2-0.8 0.5-0.3 0.2-0.6 0.5-0.2 0.3-0.4 0.7-0.1 0.3-0.2 0.7-0.1 0.4-0.1 0.8 0 0.3 0.1 0.7 0 0.3 0.1 0.6 0.2 0.3 0.4 0.6 0.2 0.3 0.4 0.5 0.3 0.2 0.6 0.4 0.4 0.2 0.7 0.3 0.4 0.1 0.8 0.1 0.3 0.1 0.7 0.1 0.4 0 0.9-0.1 0.4-0.1 0.8-0.2 0.4-0.1 0.8-0.2 0.4-0.2 0.8-0.4z"/><path class="a" d="m799.9 286.8v-21h3.3v3.8h0.2q0.3-0.4 0.6-0.8 0.3-0.4 0.7-0.7 0.3-0.4 0.7-0.7 0.4-0.3 0.8-0.6 0.4-0.3 0.9-0.4 0.4-0.2 0.8-0.3 0.5-0.2 0.9-0.2 0.5-0.1 0.9-0.1h1.7v3.3h-1.9q-0.6-0.1-1.2 0-0.6 0.1-1.2 0.3-0.6 0.3-1.1 0.6-0.5 0.3-1 0.8-0.4 0.4-0.7 1-0.3 0.5-0.5 1.1-0.2 0.6-0.3 1.2-0.1 0.6-0.1 1.2v11.5z"/><path class="a" d="m814.1 286.8v-21h3.4v3.8h0.2q2.7-4.2 7-4.2 0.7 0 1.4 0.1 0.8 0.1 1.4 0.4 0.7 0.3 1.3 0.7 0.6 0.5 1 1 0.5 0.7 0.9 1.4 0.4 0.7 0.6 1.4 0.3 0.8 0.4 1.6 0.1 0.8 0 1.6v13.3h-3.5v-12.9q0-0.5-0.1-1.1 0-0.5-0.2-1-0.1-0.5-0.4-1-0.2-0.5-0.5-0.9-0.3-0.4-0.7-0.6-0.4-0.3-0.8-0.5-0.4-0.2-0.9-0.3-0.5 0-0.9 0-0.4 0-0.8 0-0.4 0.1-0.8 0.2-0.4 0.1-0.8 0.3-0.4 0.1-0.7 0.3-0.3 0.3-0.7 0.5-0.3 0.3-0.5 0.6-0.3 0.3-0.5 0.6-0.3 0.3-0.5 0.7-0.2 0.4-0.3 0.8-0.2 0.4-0.3 0.8-0.1 0.4-0.1 0.8 0 0.5 0 0.9v11.7z"/><path class="a" d="m840.4 262h-3.6v-3.7h3.6zm-0.1 24.8h-3.5v-21h3.5z"/><path class="a" d="m845.5 286.8v-21h3.4v3.8h0.2q2.8-4.2 7.1-4.2 0.7 0 1.4 0.1 0.7 0.1 1.4 0.4 0.7 0.3 1.2 0.7 0.6 0.5 1.1 1 0.5 0.7 0.9 1.4 0.4 0.7 0.6 1.4 0.2 0.8 0.3 1.6 0.1 0.8 0.1 1.6v13.3h-3.6v-12.9q0-0.5 0-1.1-0.1-0.5-0.2-1-0.2-0.5-0.4-1-0.2-0.5-0.6-0.9-0.3-0.4-0.6-0.6-0.4-0.3-0.8-0.5-0.5-0.2-0.9-0.3-0.5 0-1 0-0.4 0-0.8 0-0.4 0.1-0.8 0.2-0.4 0.1-0.7 0.3-0.4 0.1-0.7 0.3-0.4 0.3-0.7 0.5-0.3 0.3-0.6 0.6-0.3 0.3-0.5 0.6-0.2 0.3-0.4 0.7-0.2 0.4-0.3 0.8-0.2 0.4-0.3 0.8-0.1 0.4-0.1 0.8-0.1 0.5-0.1 0.9v11.7z"/><path class="a" d="m870.3 293.5q-0.7-0.5-1.2-1-0.5-0.6-0.9-1.2-0.5-0.6-0.8-1.3-0.3-0.7-0.4-1.5l3.1-0.5q0.1 0.4 0.4 0.9 0.2 0.4 0.4 0.8 0.3 0.4 0.7 0.7 0.3 0.3 0.8 0.6 0.4 0.3 1 0.5 0.5 0.2 1 0.3 0.6 0.2 1.1 0.2 0.6 0.1 1.1 0 0.7 0.1 1.3 0 0.7-0.1 1.3-0.3 0.6-0.2 1.2-0.6 0.5-0.3 1-0.8 1.5-1.7 1.5-5.2v-2.7h-0.2q-0.2 0.4-0.6 0.8-0.3 0.5-0.6 0.8-0.4 0.4-0.8 0.7-0.4 0.3-0.9 0.6-0.5 0.3-1 0.5-0.5 0.2-1 0.3-0.5 0.2-1 0.2-0.6 0.1-1.1 0.1-0.6 0-1.2-0.1-0.6-0.1-1.2-0.3-0.6-0.1-1.2-0.4-0.5-0.2-1-0.6-0.5-0.3-1-0.8-0.5-0.4-0.9-0.8-0.4-0.5-0.7-1.1-0.3-0.5-0.6-1-0.6-1.3-0.9-2.7-0.2-1.3-0.2-2.7 0-1.4 0.2-2.8 0.3-1.3 0.9-2.6 0.3-0.6 0.6-1.1 0.3-0.5 0.7-1 0.4-0.5 0.9-0.9 0.5-0.4 1-0.8 0.5-0.3 1-0.6 0.6-0.2 1.2-0.4 0.6-0.2 1.2-0.2 0.6-0.1 1.2-0.1 0.5 0 1.1 0 0.5 0.1 1 0.2 0.6 0.2 1.1 0.4 0.5 0.2 0.9 0.5 0.5 0.2 0.9 0.6 0.5 0.3 0.9 0.7 0.4 0.4 0.7 0.9 0.3 0.4 0.6 0.9h0.2v-3.8h3.4v19.3q0.1 1-0.1 2-0.1 1-0.5 2-0.3 0.9-0.8 1.8-0.5 0.9-1.2 1.6-0.7 0.7-1.6 1.2-0.8 0.6-1.8 0.9-0.9 0.4-1.9 0.5-1 0.2-2 0.1-0.8 0-1.6-0.1-0.9-0.1-1.7-0.3-0.8-0.2-1.6-0.5-0.7-0.4-1.4-0.8zm10.8-12.3q0.9-1.1 1.4-2.5 0.4-1.3 0.4-2.8 0-1.4-0.4-2.8-0.5-1.4-1.4-2.5-0.4-0.5-1-0.9-0.5-0.4-1.1-0.6-0.6-0.3-1.3-0.4-0.6-0.1-1.3-0.1-0.6 0-1.2 0.1-0.7 0.1-1.2 0.4-0.6 0.2-1.1 0.6-0.5 0.4-0.9 0.9-0.8 1.2-1.3 2.6-0.4 1.3-0.4 2.8 0 1.4 0.4 2.8 0.5 1.4 1.3 2.6 0.4 0.4 0.9 0.8 0.5 0.4 1.1 0.7 0.5 0.2 1.2 0.4 0.6 0.1 1.2 0.1 0.7 0 1.3-0.2 0.7-0.1 1.3-0.4 0.6-0.3 1.2-0.7 0.5-0.4 0.9-0.9z"/><path class="a" d="m472.4 310.8q-0.3 0-0.5 0-0.2 0-0.4 0.1-0.2 0.1-0.4 0.2-0.2 0.1-0.3 0.3-0.2 0.2-0.3 0.4-0.1 0.2-0.2 0.5 0 0.2 0 0.5-0.1 0.2 0 0.5v3h5.8v2.9h-5.8v18.1h-3.6v-18.1h-4.2v-3h4.2v-3q-0.1-0.5 0-1 0.1-0.6 0.3-1.1 0.1-0.5 0.4-1 0.2-0.4 0.6-0.9 0.3-0.3 0.8-0.6 0.4-0.3 0.9-0.5 0.5-0.2 1-0.2 0.5-0.1 1-0.1h4.6v3z"/><path class="a" d="m481.7 336.3q-0.5-0.4-1-0.8-0.5-0.4-1-0.9-0.4-0.5-0.8-1-0.4-0.6-0.7-1.2-0.6-1.3-0.9-2.8-0.3-1.4-0.3-2.9 0-1.4 0.3-2.9 0.3-1.4 0.9-2.7 0.3-0.6 0.7-1.2 0.4-0.5 0.8-1 0.4-0.5 1-0.9 0.5-0.5 1-0.8 1.2-0.7 2.5-1 1.4-0.4 2.7-0.4 1.4 0 2.7 0.4 1.3 0.3 2.5 1 0.6 0.3 1.1 0.8 0.5 0.4 1 0.9 0.4 0.5 0.8 1 0.4 0.6 0.7 1.2 0.6 1.3 0.9 2.7 0.3 1.5 0.3 2.9 0 1.5-0.3 2.9-0.3 1.5-0.9 2.8-0.3 0.6-0.7 1.2-0.4 0.5-0.8 1-0.5 0.5-1 0.9-0.5 0.4-1.1 0.8-1.2 0.7-2.5 1-1.3 0.4-2.7 0.4-1.3 0-2.7-0.4-1.3-0.3-2.5-1zm9.9-3.9q0.9-1.2 1.3-2.7 0.4-1.4 0.4-3 0-1.5-0.4-2.9-0.4-1.5-1.3-2.8-0.9-0.9-2.1-1.5-1.2-0.5-2.6-0.5-1.3 0-2.5 0.5-1.3 0.6-2.2 1.5-0.8 1.3-1.2 2.8-0.5 1.4-0.5 2.9 0 1.6 0.5 3 0.4 1.5 1.2 2.7 0.9 1 2.2 1.6 1.2 0.5 2.5 0.5 1.4 0 2.6-0.5 1.2-0.6 2.1-1.6z"/><path class="a" d="m500.7 337.2v-21h3.4v3.8h0.2q0.2-0.4 0.6-0.8 0.3-0.4 0.6-0.8 0.4-0.3 0.8-0.6 0.4-0.4 0.8-0.6 0.4-0.3 0.8-0.5 0.4-0.1 0.9-0.3 0.4-0.1 0.9-0.1 0.4-0.1 0.9-0.1h1.7v3.2h-1.9q-0.7 0-1.3 0.1-0.6 0.1-1.2 0.3-0.5 0.2-1.1 0.6-0.5 0.3-0.9 0.7-0.4 0.5-0.8 1-0.3 0.6-0.5 1.1-0.2 0.6-0.3 1.2-0.1 0.7 0 1.3v11.5z"/><path class="a" d="m528.2 324v9.9h14.5v3.3h-18.3v-29.4h18.1v3.4h-14.3v9.5h12.8v3.3z"/><path class="a" d="m547.5 337.2v-21h3.4v3.8h0.2q2.7-4.2 7-4.2 0.8 0 1.5 0.1 0.7 0.1 1.4 0.4 0.6 0.3 1.2 0.7 0.6 0.5 1.1 1 0.5 0.6 0.8 1.3 0.4 0.8 0.7 1.5 0.2 0.8 0.3 1.6 0.1 0.8 0.1 1.6v13.2h-3.6v-12.8q0-0.5 0-1-0.1-0.6-0.3-1.1-0.1-0.5-0.3-1-0.3-0.4-0.6-0.9-0.3-0.3-0.7-0.6-0.3-0.3-0.8-0.5-0.4-0.2-0.9-0.2-0.4-0.1-0.9-0.1-0.4 0-0.8 0-0.4 0.1-0.8 0.2-0.4 0.1-0.7 0.3-0.4 0.1-0.8 0.4-0.3 0.2-0.6 0.4-0.3 0.3-0.6 0.6-0.3 0.3-0.5 0.6-0.2 0.3-0.4 0.7-0.2 0.4-0.4 0.8-0.1 0.4-0.2 0.8-0.1 0.4-0.2 0.9 0 0.4 0 0.8v11.8z"/><path class="a" d="m570.2 337.2v-29.4h3.6v12h0.2q0.3-0.4 0.6-0.8 0.3-0.4 0.7-0.8 0.3-0.4 0.7-0.7 0.4-0.3 0.9-0.6 0.4-0.3 0.9-0.5 0.5-0.2 1-0.3 0.5-0.1 1-0.2 0.5-0.1 1.1-0.1 0.7 0 1.4 0.1 0.7 0.2 1.4 0.4 0.6 0.3 1.2 0.7 0.6 0.5 1.1 1 0.5 0.6 0.9 1.3 0.3 0.8 0.6 1.5 0.2 0.8 0.3 1.6 0.1 0.8 0.1 1.6v13.2h-3.6v-12.8q0-0.5 0-1-0.1-0.6-0.2-1.1-0.2-0.5-0.4-1-0.2-0.4-0.6-0.9-0.3-0.3-0.6-0.6-0.4-0.3-0.9-0.5-0.4-0.2-0.8-0.2-0.5-0.1-1-0.1-0.4 0-0.8 0.1-0.4 0-0.8 0.1-0.4 0.1-0.7 0.3-0.4 0.2-0.8 0.4-0.3 0.2-0.6 0.4-0.3 0.3-0.6 0.6-0.3 0.3-0.5 0.6-0.2 0.4-0.4 0.7-0.2 0.4-0.4 0.8-0.1 0.4-0.2 0.8-0.1 0.4-0.1 0.9-0.1 0.4-0.1 0.8v11.8z"/><path class="a" d="m610.9 334.5v2.7h-1.4q-0.8 0.1-1.5-0.1-0.6-0.3-1.2-0.8-0.5-0.5-0.7-1.2-0.3-0.7-0.2-1.4v-0.5h-0.2q-0.3 0.6-0.6 1-0.4 0.5-0.8 0.9-0.4 0.4-0.9 0.8-0.4 0.3-0.9 0.6-0.5 0.3-1 0.5-0.5 0.2-1.1 0.4-0.5 0.1-1.1 0.2-0.5 0.1-1.1 0.1-0.6 0-1.3-0.1-0.6-0.1-1.3-0.3-0.6-0.2-1.2-0.6-0.5-0.3-1.1-0.7-0.4-0.4-0.8-1-0.4-0.5-0.6-1.1-0.3-0.6-0.4-1.2-0.1-0.6-0.1-1.3 0-0.7 0.1-1.3 0.2-0.7 0.5-1.4 0.2-0.6 0.7-1.2 0.4-0.5 0.9-1 0.6-0.5 1.3-0.8 0.7-0.4 1.4-0.6 0.8-0.3 1.5-0.4 0.8-0.1 1.6-0.1h5.9v-0.8q0-0.5-0.1-1 0-0.5-0.2-0.9-0.1-0.5-0.4-0.9-0.2-0.4-0.5-0.8-0.4-0.3-0.8-0.6-0.4-0.2-0.8-0.4-0.5-0.1-1-0.2-0.4-0.1-0.9 0-0.5 0-0.9 0-0.5 0.1-0.9 0.2-0.4 0.1-0.9 0.3-0.4 0.1-0.8 0.4-0.3 0.2-0.6 0.5-0.3 0.3-0.6 0.7-0.2 0.4-0.4 0.8-0.2 0.3-0.3 0.8l-3.2-0.6q0.2-0.7 0.5-1.3 0.3-0.6 0.7-1.2 0.4-0.6 0.8-1.1 0.5-0.5 1-1 0.6-0.4 1.3-0.8 0.7-0.3 1.4-0.5 0.7-0.2 1.4-0.3 0.7-0.1 1.5-0.1 0.8 0 1.6 0.1 0.9 0.1 1.7 0.4 0.7 0.3 1.5 0.7 0.7 0.4 1.3 1 0.5 0.6 1 1.3 0.4 0.6 0.7 1.4 0.2 0.7 0.4 1.5 0.1 0.8 0.1 1.6l-0.1 9.2q0 0.1 0.1 0.3 0 0.1 0 0.3 0 0.1 0.1 0.3 0.1 0.1 0.1 0.2 0.1 0.1 0.3 0.2 0.1 0.1 0.2 0.1 0.1 0.1 0.3 0.1 0.1 0 0.2 0zm-8.8-0.8q0.3-0.2 0.7-0.5 0.3-0.2 0.6-0.5 0.3-0.3 0.6-0.6 0.2-0.4 0.4-0.7 0.2-0.4 0.4-0.8 0.2-0.4 0.3-0.9 0.1-0.4 0.1-0.8 0.1-0.5 0.1-0.9v-0.5h-5.7q-0.4 0-0.9 0.1-0.4 0-0.8 0.1-0.5 0.2-0.9 0.3-0.4 0.2-0.7 0.5-0.3 0.2-0.6 0.5-0.2 0.3-0.4 0.7-0.2 0.3-0.3 0.7 0 0.4 0 0.8 0 0.3 0 0.7 0.1 0.3 0.2 0.6 0.1 0.3 0.3 0.6 0.2 0.3 0.5 0.5 0.3 0.2 0.6 0.4 0.3 0.2 0.7 0.3 0.4 0.1 0.7 0.1 0.4 0.1 0.8 0.1 0.4 0 0.8-0.1 0.4 0 0.9-0.1 0.4-0.1 0.8-0.3 0.4-0.1 0.8-0.3z"/><path class="a" d="m614.1 337.2v-21h3.4v3.8h0.2q2.7-4.2 7-4.2 0.7 0 1.5 0.1 0.7 0.1 1.3 0.4 0.7 0.3 1.3 0.7 0.6 0.5 1 1 0.5 0.6 0.9 1.3 0.4 0.8 0.6 1.5 0.3 0.8 0.4 1.6 0.1 0.8 0 1.6v13.2h-3.5v-12.8q0-0.5-0.1-1 0-0.6-0.2-1.1-0.1-0.5-0.4-1-0.2-0.4-0.5-0.9-0.3-0.3-0.7-0.6-0.4-0.3-0.8-0.5-0.4-0.2-0.9-0.2-0.5-0.1-0.9-0.1-0.4 0-0.8 0.1-0.4 0-0.8 0.1-0.4 0.1-0.8 0.3-0.4 0.2-0.7 0.4-0.3 0.2-0.7 0.4-0.3 0.3-0.5 0.6-0.3 0.3-0.5 0.6-0.3 0.4-0.5 0.7-0.2 0.4-0.3 0.8-0.2 0.4-0.3 0.8-0.1 0.4-0.1 0.9 0 0.4 0 0.8v11.8z"/><path class="a" d="m640.1 336.3q-0.6-0.4-1.1-0.8-0.5-0.4-0.9-0.9-0.5-0.5-0.9-1-0.3-0.6-0.6-1.2-0.7-1.3-1-2.8-0.3-1.4-0.3-2.9 0-1.4 0.3-2.9 0.3-1.4 1-2.7 0.3-0.6 0.6-1.2 0.4-0.5 0.8-1 0.5-0.5 1-0.9 0.5-0.5 1.1-0.8 0.5-0.3 1.2-0.6 0.6-0.3 1.2-0.4 0.7-0.2 1.3-0.3 0.7-0.1 1.4-0.1 0.7 0 1.5 0.1 0.7 0.1 1.4 0.3 0.7 0.2 1.4 0.6 0.7 0.3 1.3 0.7 0.6 0.5 1.1 1 0.5 0.5 0.9 1.2 0.4 0.6 0.7 1.2 0.3 0.7 0.5 1.4l-3.2 0.6q-0.1-0.4-0.3-0.8-0.2-0.5-0.5-0.8-0.2-0.4-0.6-0.7-0.3-0.3-0.7-0.6-0.4-0.3-0.8-0.5-0.4-0.2-0.9-0.3-0.4-0.1-0.9-0.2-0.5 0-0.9 0-0.7 0-1.3 0.1-0.7 0.1-1.3 0.4-0.6 0.2-1.1 0.6-0.5 0.4-0.9 0.9-0.9 1.3-1.3 2.7-0.4 1.5-0.4 3 0 1.5 0.4 3 0.4 1.4 1.3 2.7 0.4 0.5 0.9 0.9 0.6 0.4 1.2 0.7 0.6 0.2 1.3 0.3 0.6 0.2 1.3 0.1 0.5 0 0.9 0 0.5-0.1 1-0.2 0.4-0.1 0.9-0.3 0.4-0.2 0.8-0.5 0.4-0.2 0.7-0.6 0.3-0.3 0.6-0.7 0.3-0.3 0.5-0.7 0.2-0.5 0.3-0.9l3.2 0.6q-0.2 0.7-0.5 1.4-0.3 0.7-0.7 1.3-0.4 0.6-1 1.1-0.5 0.5-1.1 1-0.6 0.4-1.3 0.7-0.6 0.4-1.4 0.6-0.7 0.2-1.4 0.3-0.8 0.1-1.5 0.1-0.7 0-1.4-0.1-0.6 0-1.3-0.2-0.7-0.2-1.3-0.4-0.6-0.3-1.2-0.6z"/><path class="a" d="m675.7 327.8h-15.8q0 0.7 0.2 1.4 0.1 0.6 0.4 1.3 0.2 0.6 0.6 1.2 0.4 0.6 0.8 1.1 0.5 0.4 1 0.8 0.5 0.3 1.1 0.5 0.6 0.3 1.2 0.4 0.6 0.1 1.2 0 0.5 0.1 0.9 0 0.5 0 0.9-0.1 0.4-0.1 0.8-0.3 0.5-0.2 0.8-0.4 0.4-0.2 0.7-0.5 0.4-0.2 0.6-0.5 0.3-0.3 0.6-0.7 0.2-0.3 0.4-0.7l3.1 0.5q-0.2 0.7-0.5 1.3-0.3 0.6-0.8 1.2-0.4 0.5-0.9 1-0.5 0.5-1.1 0.8-0.6 0.4-1.3 0.7-0.6 0.3-1.3 0.5-0.7 0.2-1.4 0.3-0.7 0.1-1.5 0.1-0.7 0-1.3-0.1-0.7 0-1.4-0.2-0.7-0.2-1.3-0.5-0.6-0.2-1.2-0.6-0.6-0.3-1.1-0.7-0.5-0.5-1-1-0.4-0.4-0.8-1-0.4-0.5-0.7-1.1-0.3-0.7-0.6-1.4-0.2-0.7-0.4-1.4-0.1-0.7-0.2-1.4-0.1-0.8-0.1-1.5 0-0.7 0.1-1.5 0.1-0.7 0.2-1.4 0.2-0.7 0.4-1.4 0.3-0.7 0.6-1.4 0.3-0.6 0.6-1.1 0.4-0.6 0.8-1.1 0.4-0.5 0.9-0.9 0.5-0.4 1.1-0.8 1.2-0.7 2.4-1 1.3-0.4 2.7-0.4 1.3 0 2.6 0.3 1.3 0.4 2.5 1 0.5 0.3 1 0.7 0.5 0.4 0.9 0.9 0.5 0.5 0.8 1 0.4 0.5 0.7 1.1 0.3 0.6 0.5 1.2 0.3 0.7 0.4 1.4 0.2 0.6 0.2 1.3 0.1 0.7 0.1 1.4 0 0.2 0 0.4 0 0.2 0 0.5 0 0.2-0.1 0.4 0 0.2 0 0.4zm-13.7-7.3q-0.4 0.5-0.8 1-0.3 0.5-0.6 1-0.2 0.6-0.4 1.2-0.1 0.5-0.2 1.2h12.4q-0.1-0.7-0.2-1.2-0.2-0.6-0.4-1.2-0.3-0.5-0.6-1-0.4-0.5-0.8-1-0.4-0.4-0.9-0.7-0.5-0.3-1.1-0.5-0.5-0.2-1.1-0.3-0.6-0.1-1.1 0-0.6-0.1-1.2 0-0.5 0.1-1.1 0.3-0.5 0.2-1 0.5-0.5 0.3-0.9 0.7z"/><path class="a" d="m682.7 336.3q-0.5-0.4-1-0.8-0.5-0.4-0.9-0.9-0.4-0.5-0.7-1.1-0.4-0.5-0.6-1.1-0.6-1.3-0.9-2.8-0.2-1.4-0.3-2.9 0.1-1.4 0.3-2.9 0.3-1.4 0.9-2.7 0.2-0.6 0.6-1.2 0.3-0.5 0.7-1 0.4-0.5 0.9-0.9 0.5-0.4 1-0.8 0.5-0.3 1.1-0.6 0.5-0.3 1.1-0.4 0.6-0.2 1.2-0.3 0.7-0.1 1.3-0.1 0.5 0 1.1 0.1 0.5 0 1 0.1 0.6 0.2 1.1 0.4 0.5 0.2 1 0.4 0.4 0.3 0.9 0.6 0.4 0.3 0.8 0.7 0.3 0.4 0.7 0.8 0.3 0.4 0.6 0.9h0.2v-12h3.5v29.4h-3.3v-3.8h-0.2q-0.3 0.5-0.7 0.9-0.3 0.5-0.7 0.9-0.4 0.3-0.8 0.7-0.5 0.3-1 0.6-1 0.6-2.2 0.9-1.1 0.2-2.3 0.2-1.1-0.1-2.3-0.4-1.1-0.4-2.1-1zm10.3-3.9q0.8-1.2 1.3-2.7 0.5-1.4 0.5-2.9 0-1.6-0.5-3-0.5-1.4-1.4-2.7-0.4-0.5-0.9-0.9-0.6-0.4-1.2-0.7-0.6-0.2-1.3-0.4-0.7-0.1-1.4-0.1-0.6 0-1.2 0.1-0.7 0.1-1.3 0.4-0.6 0.2-1.1 0.6-0.5 0.4-0.9 0.9-0.8 1.3-1.2 2.8-0.4 1.4-0.4 2.9 0 1.6 0.4 3 0.4 1.5 1.2 2.8 0.4 0.5 0.9 0.9 0.5 0.3 1.1 0.6 0.6 0.3 1.3 0.4 0.6 0.1 1.2 0.1 0.7 0 1.4-0.1 0.7-0.1 1.3-0.4 0.6-0.3 1.2-0.7 0.5-0.4 0.9-0.9z"/><path class="a" d="m735 337.2h-3.8l-2.5-7.5h-12.3l-2.4 7.5h-3.7l10-29.4h4.7zm-12.5-25.8l-5 15.1h10.2l-5-15.1z"/><path class="a" d="m738 337.2v-21h3.4v3.8h0.2q0.2-0.4 0.6-0.8 0.3-0.4 0.6-0.8 0.4-0.3 0.8-0.6 0.4-0.4 0.8-0.6 0.4-0.3 0.8-0.5 0.4-0.1 0.9-0.3 0.4-0.1 0.9-0.1 0.4-0.1 0.9-0.1h1.7v3.2h-1.9q-0.7 0-1.3 0.1-0.6 0.1-1.2 0.3-0.5 0.2-1.1 0.6-0.5 0.3-0.9 0.7-0.4 0.5-0.7 1-0.4 0.6-0.6 1.1-0.2 0.6-0.3 1.2-0.1 0.7 0 1.3v11.5z"/><path class="a" d="m752.3 337.2v-21h3.3v3.6h0.2q0.3-0.4 0.6-0.9 0.3-0.4 0.6-0.7 0.4-0.4 0.8-0.7 0.4-0.4 0.8-0.6 0.4-0.3 0.8-0.5 0.5-0.2 1-0.3 0.4-0.1 0.9-0.2 0.5 0 1 0 0.4 0 0.9 0 0.5 0.1 1 0.2 0.4 0.2 0.8 0.4 0.5 0.2 0.8 0.5 0.4 0.3 0.8 0.7 0.3 0.4 0.6 0.8 0.3 0.4 0.5 0.8 0.2 0.5 0.3 1h0.2q2.7-4.4 7.1-4.4 0.7-0.1 1.4 0.1 0.6 0.1 1.3 0.4 0.6 0.2 1.1 0.6 0.6 0.5 1 1 0.5 0.6 0.9 1.3 0.3 0.7 0.5 1.5 0.2 0.7 0.3 1.5 0.1 0.8 0.1 1.5v13.5h-3.6v-13q0-0.5 0-1 0-0.6-0.2-1.1-0.1-0.5-0.3-0.9-0.2-0.5-0.5-0.9-0.3-0.4-0.6-0.6-0.3-0.3-0.7-0.5-0.4-0.1-0.8-0.2-0.5-0.1-0.9-0.1-0.5 0-1.1 0.1-0.5 0.2-1.1 0.4-0.5 0.2-0.9 0.6-0.5 0.3-0.8 0.7-0.4 0.5-0.7 1-0.3 0.6-0.5 1.1-0.2 0.6-0.3 1.2-0.1 0.6 0 1.2v12h-3.6v-13q0-0.5 0-1-0.1-0.5-0.2-1-0.1-0.5-0.3-1-0.2-0.5-0.5-0.9-0.3-0.3-0.6-0.6-0.4-0.2-0.8-0.4-0.3-0.2-0.8-0.3-0.4 0-0.8 0-0.6 0-1.1 0.1-0.6 0.1-1.1 0.3-0.5 0.3-0.9 0.6-0.5 0.3-0.8 0.8-0.4 0.4-0.7 1-0.3 0.5-0.5 1.1-0.2 0.6-0.3 1.2-0.1 0.6-0.1 1.2v12z"/><path class="a" d="m801.4 335.8q-0.7-0.5-1.5-1.1-0.7-0.6-1.3-1.2-0.6-0.7-1.1-1.5-0.5-0.7-0.9-1.6-0.8-1.8-1.3-3.8-0.4-2-0.4-4.1 0-2 0.4-4 0.5-2 1.3-3.9 0.4-0.8 0.9-1.5 0.5-0.8 1.1-1.5 0.6-0.7 1.3-1.2 0.7-0.6 1.5-1.1 0.8-0.5 1.7-0.8 0.8-0.4 1.7-0.6 1-0.3 1.9-0.4 0.9-0.1 1.8-0.1 1.1 0 2.1 0.1 1 0.2 1.9 0.5 1 0.3 1.9 0.7 0.9 0.5 1.8 1.1 0.8 0.6 1.5 1.3 0.7 0.8 1.3 1.6 0.6 0.9 1 1.8 0.4 1 0.7 2l-3.4 0.5q-0.2-0.7-0.5-1.3-0.3-0.7-0.7-1.3-0.5-0.5-1-1.1-0.5-0.5-1.1-0.9-0.6-0.4-1.2-0.7-0.7-0.3-1.4-0.6-0.7-0.2-1.4-0.3-0.7 0-1.5 0-1-0.1-2 0.1-1 0.2-1.9 0.6-1 0.4-1.8 1-0.8 0.6-1.5 1.4-2.6 3.2-2.6 8.6 0 5.5 2.6 8.7 0.7 0.8 1.5 1.4 0.9 0.6 1.8 1 1 0.4 2 0.6 1 0.1 2 0.1 0.8 0 1.5-0.1 0.8-0.1 1.5-0.3 0.7-0.2 1.4-0.5 0.6-0.3 1.2-0.7 0.6-0.4 1.1-1 0.5-0.5 1-1.1 0.4-0.6 0.7-1.2 0.3-0.7 0.5-1.4l3.4 0.6q-0.2 1-0.7 1.9-0.4 1-1 1.8-0.6 0.9-1.3 1.6-0.7 0.8-1.6 1.4-0.8 0.6-1.7 1.1-0.9 0.4-1.9 0.7-1 0.3-2 0.5-1 0.1-2.1 0.1-0.9 0-1.8-0.1-1-0.1-1.9-0.4-0.9-0.2-1.8-0.6-0.9-0.4-1.7-0.8z"/><path class="a" d="m828 336.3q-0.6-0.4-1.1-0.8-0.5-0.4-0.9-0.9-0.5-0.5-0.8-1-0.4-0.6-0.7-1.2-0.6-1.3-1-2.8-0.3-1.4-0.3-2.9 0-1.4 0.3-2.9 0.4-1.4 1-2.7 0.3-0.6 0.7-1.2 0.3-0.5 0.8-1 0.4-0.5 0.9-0.9 0.5-0.5 1.1-0.8 1.2-0.7 2.5-1 1.3-0.4 2.7-0.4 1.4 0 2.7 0.4 1.3 0.3 2.5 1 0.6 0.3 1.1 0.8 0.5 0.4 0.9 0.9 0.5 0.5 0.9 1 0.3 0.6 0.6 1.2 0.6 1.3 1 2.7 0.3 1.5 0.3 2.9 0 1.5-0.3 2.9-0.4 1.5-1 2.8-0.3 0.6-0.6 1.2-0.4 0.5-0.9 1-0.4 0.5-0.9 0.9-0.5 0.4-1.1 0.8-1.2 0.7-2.5 1-1.3 0.4-2.7 0.4-1.4 0-2.7-0.4-1.3-0.3-2.5-1zm9.9-3.9q0.8-1.2 1.3-2.7 0.4-1.4 0.4-3 0-1.5-0.4-2.9-0.5-1.5-1.3-2.8-0.9-0.9-2.1-1.5-1.3-0.5-2.6-0.5-1.3 0-2.6 0.5-1.2 0.6-2.1 1.5-0.8 1.3-1.3 2.8-0.4 1.4-0.4 2.9 0 1.6 0.4 3 0.5 1.5 1.3 2.7 0.9 1 2.1 1.6 1.3 0.5 2.6 0.5 1.3 0 2.6-0.5 1.2-0.6 2.1-1.6z"/><path class="a" d="m847 337.2v-21h3.4v3.8h0.2q2.7-4.2 7-4.2 0.8 0 1.5 0.1 0.7 0.1 1.3 0.4 0.7 0.3 1.3 0.7 0.6 0.5 1.1 1 0.4 0.6 0.8 1.3 0.4 0.8 0.6 1.5 0.3 0.8 0.4 1.6 0.1 0.8 0 1.6v13.2h-3.5v-12.8q0-0.5-0.1-1 0-0.6-0.2-1.1-0.1-0.5-0.4-1-0.2-0.4-0.5-0.9-0.3-0.3-0.7-0.6-0.4-0.3-0.8-0.5-0.4-0.2-0.9-0.2-0.5-0.1-0.9-0.1-0.4 0-0.8 0.1-0.4 0-0.8 0.1-0.4 0.1-0.8 0.3-0.3 0.2-0.7 0.4-0.3 0.2-0.6 0.4-0.4 0.3-0.6 0.6-0.3 0.3-0.5 0.6-0.3 0.4-0.5 0.7-0.1 0.4-0.3 0.8-0.1 0.4-0.2 0.8-0.1 0.4-0.2 0.9 0 0.4 0 0.8v11.8z"/><path class="a" d="m876 337.2q-5 0-5-5.4v-12.6h-4.2v-3h4.2l1.7-5.6h1.9v5.6h6.1v3h-6.1v12.6q-0.1 0.2 0 0.4 0 0.3 0.1 0.5 0 0.2 0.1 0.4 0.1 0.3 0.3 0.4 0.1 0.2 0.3 0.3 0.2 0.1 0.4 0.2 0.2 0 0.4 0.1 0.3 0 0.5 0h4.2v3.1z"/><path class="a" d="m884.1 337.2v-21h3.4v3.8h0.2q0.3-0.4 0.6-0.8 0.3-0.4 0.7-0.8 0.3-0.3 0.7-0.6 0.4-0.4 0.8-0.6 0.4-0.3 0.9-0.5 0.4-0.1 0.8-0.3 0.5-0.1 0.9-0.1 0.5-0.1 0.9-0.1h1.7v3.2h-1.9q-0.6 0-1.2 0.1-0.6 0.1-1.2 0.3-0.6 0.2-1.1 0.6-0.5 0.3-1 0.7-0.4 0.5-0.7 1-0.3 0.6-0.5 1.1-0.2 0.6-0.3 1.2-0.1 0.7-0.1 1.3v11.5z"/><path class="a" d="m901.5 336.3q-0.5-0.4-1.1-0.8-0.5-0.4-0.9-0.9-0.5-0.5-0.8-1-0.4-0.6-0.7-1.2-0.6-1.3-0.9-2.8-0.3-1.4-0.3-2.9 0-1.4 0.3-2.9 0.3-1.4 0.9-2.7 0.3-0.6 0.7-1.2 0.3-0.5 0.8-1 0.4-0.5 0.9-0.9 0.6-0.5 1.1-0.8 1.2-0.7 2.5-1 1.3-0.4 2.7-0.4 1.4 0 2.7 0.4 1.3 0.3 2.5 1 0.6 0.3 1.1 0.8 0.5 0.4 1 0.9 0.4 0.5 0.8 1 0.3 0.6 0.6 1.2 0.7 1.3 1 2.7 0.3 1.5 0.3 2.9 0 1.5-0.3 2.9-0.3 1.5-1 2.8-0.3 0.6-0.6 1.2-0.4 0.5-0.9 1-0.4 0.5-0.9 0.9-0.5 0.4-1.1 0.8-1.2 0.7-2.5 1-1.3 0.4-2.7 0.4-1.4 0-2.7-0.4-1.3-0.3-2.5-1zm9.9-3.9q0.9-1.2 1.3-2.7 0.4-1.4 0.4-3 0-1.5-0.4-2.9-0.4-1.5-1.3-2.8-0.9-0.9-2.1-1.5-1.2-0.5-2.6-0.5-1.3 0-2.5 0.5-1.3 0.6-2.2 1.5-0.8 1.3-1.2 2.8-0.5 1.4-0.5 2.9 0 1.6 0.5 3 0.4 1.5 1.2 2.7 0.9 1 2.2 1.6 1.2 0.5 2.5 0.5 1.4 0 2.6-0.5 1.2-0.6 2.1-1.6z"/><path class="a" d="m924.3 337.2h-3.6v-29.4h3.6z"/><path class="a" d="m468.5 362.9h-3.5v-3.8h3.6zm0 24.8h-3.5v-21h3.4z"/><path class="a" d="m473.7 387.6v-21h3.4v3.8h0.2q2.7-4.2 7.1-4.2 0.7 0 1.4 0.1 0.7 0.1 1.4 0.4 0.6 0.3 1.2 0.7 0.6 0.5 1.1 1 0.5 0.7 0.9 1.4 0.3 0.7 0.6 1.4 0.2 0.8 0.3 1.6 0.1 0.8 0.1 1.6v13.2h-3.6v-12.7q0-0.6 0-1.1-0.1-0.5-0.2-1.1-0.2-0.5-0.4-0.9-0.3-0.5-0.6-0.9-0.3-0.4-0.7-0.7-0.3-0.3-0.8-0.4-0.4-0.2-0.9-0.3-0.4-0.1-0.9-0.1-0.4 0-0.8 0.1-0.4 0-0.8 0.1-0.4 0.1-0.7 0.3-0.4 0.2-0.8 0.4-0.3 0.2-0.6 0.5-0.3 0.2-0.6 0.5-0.3 0.3-0.5 0.6-0.2 0.4-0.4 0.7-0.2 0.4-0.4 0.8-0.1 0.4-0.2 0.8-0.1 0.5-0.2 0.9 0 0.4 0 0.8v11.8z"/><path class="a" d="m524.8 371v-12.8h3.7v29.4h-3.7v-13.2h-14.5v13.2h-3.8v-29.4h3.8v12.8z"/><path class="a" d="m535.9 385.9q-0.5-0.7-0.9-1.4-0.4-0.7-0.6-1.5-0.2-0.7-0.3-1.5-0.1-0.8-0.1-1.6v-13.3h3.6v12.8q-0.1 0.6 0 1.1 0.1 0.5 0.2 1 0.2 0.6 0.4 1 0.2 0.5 0.5 0.9 0.3 0.4 0.7 0.7 0.4 0.3 0.8 0.5 0.4 0.2 0.9 0.2 0.4 0.1 0.9 0.1 0.4 0 0.8 0 0.4-0.1 0.8-0.2 0.3-0.1 0.7-0.3 0.4-0.1 0.7-0.4 0.3-0.2 0.6-0.4 0.4-0.3 0.6-0.6 0.3-0.3 0.5-0.6 0.2-0.4 0.4-0.7 0.2-0.4 0.4-0.8 0.1-0.4 0.2-0.8 0.1-0.4 0.2-0.9 0-0.4 0-0.8v-11.8h3.6v21h-3.4v-3.7h-0.2q-2.7 4.2-6.9 4.2-0.8 0-1.5-0.1-0.7-0.2-1.3-0.5-0.7-0.2-1.3-0.7-0.6-0.4-1-0.9z"/><path class="a" d="m556.5 387.6v-21h3.3v3.6h0.2q0.2-0.4 0.5-0.9 0.3-0.4 0.7-0.8 0.3-0.4 0.7-0.7 0.4-0.3 0.9-0.6 0.4-0.2 0.8-0.4 0.5-0.2 0.9-0.3 0.5-0.2 1-0.2 0.4-0.1 0.9-0.1 0.5 0 1 0.1 0.5 0 0.9 0.2 0.5 0.1 0.9 0.4 0.4 0.2 0.8 0.5 0.4 0.3 0.7 0.6 0.4 0.4 0.6 0.8 0.3 0.4 0.5 0.9 0.2 0.4 0.4 0.9h0.2q2.7-4.4 7-4.4 0.7 0 1.4 0.1 0.7 0.1 1.3 0.4 0.7 0.3 1.2 0.7 0.6 0.4 1 0.9 0.5 0.7 0.8 1.4 0.4 0.7 0.6 1.4 0.2 0.8 0.3 1.5 0.1 0.8 0 1.6v13.4h-3.5v-13q0-0.5 0-1-0.1-0.5-0.2-1-0.1-0.5-0.3-1-0.3-0.5-0.5-0.9-0.3-0.3-0.6-0.6-0.4-0.3-0.8-0.4-0.4-0.2-0.8-0.3-0.4-0.1-0.8 0-0.6 0-1.1 0.1-0.6 0.1-1.1 0.3-0.5 0.3-1 0.6-0.4 0.3-0.8 0.8-0.3 0.4-0.6 1-0.3 0.5-0.5 1.1-0.2 0.6-0.3 1.2-0.1 0.6-0.1 1.2v12h-3.6v-13q0.1-0.5 0-1.1 0-0.5-0.1-1-0.2-0.5-0.4-0.9-0.2-0.5-0.5-0.9-0.2-0.4-0.6-0.6-0.3-0.3-0.7-0.5-0.4-0.2-0.8-0.2-0.4-0.1-0.9-0.1-0.5 0-1.1 0.1-0.5 0.1-1 0.4-0.5 0.2-1 0.5-0.4 0.4-0.8 0.8-0.4 0.5-0.7 1-0.3 0.5-0.5 1.1-0.2 0.6-0.3 1.2 0 0.6 0 1.2v12z"/><path class="a" d="m609.2 384.9v2.7h-1.5q-0.4 0.1-0.7 0-0.4 0-0.7-0.2-0.4-0.1-0.7-0.3-0.3-0.1-0.5-0.4-0.3-0.3-0.5-0.6-0.1-0.3-0.3-0.6-0.1-0.4-0.1-0.7-0.1-0.4-0.1-0.7v-0.5h-0.2q-0.3 0.6-0.6 1-0.3 0.5-0.8 0.9-0.4 0.4-0.8 0.8-0.5 0.3-1 0.6-0.5 0.3-1 0.5-0.5 0.2-1 0.4-0.6 0.1-1.1 0.2-0.6 0.1-1.1 0.1-0.7 0-1.4-0.1-0.6-0.1-1.2-0.3-0.7-0.2-1.2-0.6-0.6-0.3-1.1-0.7-0.5-0.4-0.9-1-0.3-0.5-0.6-1.1-0.2-0.6-0.4-1.2-0.1-0.6 0-1.3-0.1-0.7 0.1-1.4 0.1-0.6 0.4-1.3 0.3-0.6 0.7-1.2 0.4-0.5 1-1 0.6-0.5 1.3-0.8 0.6-0.4 1.4-0.6 0.7-0.3 1.5-0.4 0.8-0.1 1.5-0.1h5.9v-0.8q0-0.5 0-1-0.1-0.5-0.2-0.9-0.2-0.5-0.4-0.9-0.3-0.4-0.6-0.8-0.3-0.3-0.7-0.6-0.4-0.2-0.9-0.4-0.5-0.1-0.9-0.2-0.5-0.1-1 0-0.4 0-0.9 0-0.4 0.1-0.9 0.2-0.4 0.1-0.8 0.3-0.4 0.1-0.8 0.4-0.4 0.2-0.7 0.5-0.3 0.4-0.5 0.7-0.3 0.4-0.4 0.8-0.2 0.3-0.3 0.8l-3.2-0.6q0.2-0.7 0.4-1.3 0.3-0.6 0.7-1.2 0.4-0.6 0.9-1.1 0.4-0.5 1-1 0.6-0.4 1.2-0.8 0.7-0.3 1.4-0.5 0.7-0.2 1.5-0.3 0.7-0.1 1.4-0.1 0.9 0 1.7 0.1 0.8 0.1 1.6 0.4 0.8 0.3 1.5 0.7 0.7 0.4 1.3 1 0.6 0.6 1 1.3 0.4 0.6 0.7 1.4 0.3 0.7 0.4 1.5 0.1 0.8 0.1 1.6v9.2q0 0.2 0 0.3 0 0.2 0.1 0.3 0 0.2 0.1 0.3 0 0.1 0.1 0.3 0.1 0.1 0.2 0.1 0.1 0.1 0.3 0.1 0.1 0.1 0.2 0.1 0.2 0 0.3 0zm-8.9-0.8q0.4-0.2 0.7-0.4 0.4-0.3 0.7-0.6 0.3-0.3 0.5-0.6 0.3-0.3 0.5-0.7 0.2-0.4 0.4-0.8 0.1-0.4 0.2-0.8 0.1-0.5 0.2-0.9 0-0.5 0-0.9v-0.4h-5.6q-0.5 0-0.9 0-0.5 0.1-0.9 0.2-0.4 0.1-0.8 0.3-0.4 0.2-0.8 0.5-0.3 0.2-0.5 0.5-0.3 0.3-0.5 0.6-0.1 0.4-0.2 0.8-0.1 0.4-0.1 0.8 0 0.3 0.1 0.6 0 0.4 0.2 0.7 0.1 0.3 0.3 0.6 0.2 0.2 0.4 0.5 0.3 0.2 0.7 0.4 0.3 0.1 0.6 0.3 0.4 0.1 0.8 0.1 0.3 0.1 0.7 0 0.4 0 0.9 0 0.4-0.1 0.8-0.2 0.4-0.1 0.8-0.2 0.4-0.2 0.8-0.4z"/><path class="a" d="m612.3 387.6v-21h3.4v3.8h0.2q2.7-4.2 7.1-4.2 0.7 0 1.4 0.1 0.7 0.1 1.4 0.4 0.6 0.3 1.2 0.7 0.6 0.5 1.1 1 0.5 0.7 0.9 1.4 0.3 0.7 0.6 1.4 0.2 0.8 0.3 1.6 0.1 0.8 0.1 1.6v13.2h-3.6v-12.7q0-0.6 0-1.1-0.1-0.5-0.2-1.1-0.2-0.5-0.4-0.9-0.3-0.5-0.6-0.9-0.3-0.4-0.7-0.7-0.3-0.3-0.8-0.5-0.4-0.1-0.9-0.2-0.4-0.1-0.9-0.1-0.4 0-0.8 0.1-0.4 0-0.8 0.1-0.4 0.1-0.7 0.3-0.4 0.2-0.8 0.4-0.3 0.2-0.6 0.5-0.3 0.2-0.6 0.5-0.3 0.3-0.5 0.6-0.2 0.4-0.4 0.7-0.2 0.4-0.4 0.8-0.1 0.4-0.2 0.8-0.1 0.5-0.2 0.9 0 0.4 0 0.8v11.8z"/><path class="a" d="m636.1 386.3q-0.6-0.4-1.1-0.9-0.5-0.6-0.9-1.2-0.4-0.6-0.7-1.3-0.3-0.6-0.5-1.4l3.2-0.5q0.1 0.5 0.3 0.9 0.1 0.4 0.4 0.8 0.3 0.4 0.6 0.7 0.3 0.3 0.7 0.6 0.4 0.2 0.9 0.4 0.5 0.2 0.9 0.3 0.5 0.2 1 0.2 0.5 0.1 1 0 0.4 0.1 0.9 0 0.4 0 0.8-0.1 0.5-0.1 0.9-0.3 0.4-0.1 0.8-0.3 0.3-0.2 0.5-0.5 0.3-0.2 0.4-0.5 0.2-0.4 0.3-0.7 0-0.4 0-0.7 0-0.3 0-0.5-0.1-0.2-0.1-0.5-0.1-0.2-0.3-0.4-0.1-0.2-0.3-0.3-0.2-0.2-0.4-0.4-0.2-0.1-0.4-0.2-0.2-0.2-0.4-0.3-0.3-0.1-0.5-0.1-0.3-0.2-0.7-0.2-0.4-0.1-0.7-0.2-0.4-0.1-0.7-0.2-0.4-0.1-0.7-0.1-0.5-0.1-1-0.2-0.5-0.1-0.9-0.3-0.5-0.1-1-0.2-0.4-0.2-0.9-0.3-0.4-0.2-0.7-0.3-0.4-0.2-0.7-0.4-0.3-0.2-0.6-0.5-0.3-0.3-0.5-0.6-0.3-0.3-0.5-0.7-0.2-0.4-0.3-0.9-0.2-0.4-0.2-0.9-0.1-0.4 0-0.9 0-0.6 0.1-1.2 0.1-0.6 0.4-1.2 0.3-0.6 0.7-1.1 0.4-0.5 1-0.8 0.6-0.4 1.2-0.8 0.7-0.3 1.4-0.5 0.7-0.2 1.4-0.3 0.7-0.1 1.5-0.1 0.7 0 1.4 0.1 0.7 0.1 1.4 0.3 0.7 0.2 1.3 0.5 0.7 0.3 1.3 0.7 0.5 0.4 1 0.9 0.4 0.5 0.8 1.1 0.4 0.6 0.6 1.2 0.3 0.6 0.4 1.3l-3.1 0.6q-0.1-0.4-0.2-0.8-0.2-0.4-0.4-0.7-0.2-0.3-0.5-0.6-0.3-0.3-0.6-0.5-0.4-0.3-0.8-0.4-0.4-0.2-0.9-0.3-0.4-0.1-0.9-0.2-0.4 0-0.8 0-0.4 0-0.8 0-0.4 0-0.8 0.1-0.4 0.1-0.7 0.2-0.4 0.2-0.7 0.4-0.3 0.1-0.5 0.4-0.3 0.2-0.4 0.5-0.2 0.3-0.2 0.6-0.1 0.3-0.1 0.6 0 0.4 0.1 0.7 0 0.3 0.2 0.6 0.2 0.3 0.4 0.5 0.3 0.2 0.6 0.4 0.5 0.2 0.9 0.4 0.5 0.1 1 0.3 0.5 0.1 1 0.2 0.5 0.1 1 0.2 0.5 0.1 1 0.2 0.4 0.1 0.9 0.2 0.5 0.2 1 0.3 0.5 0.2 0.9 0.3 0.4 0.1 0.8 0.3 0.3 0.2 0.6 0.4 0.3 0.2 0.6 0.5 0.3 0.3 0.6 0.6 0.2 0.3 0.4 0.8 0.2 0.4 0.4 0.8 0.1 0.5 0.1 0.9 0.1 0.5 0.1 0.9 0 0.7-0.2 1.4-0.1 0.6-0.4 1.2-0.3 0.6-0.7 1.1-0.4 0.5-1 0.9-1.3 0.9-2.8 1.3-1.5 0.4-3.1 0.4-1.6 0-3.1-0.4-1.5-0.4-2.8-1.3z"/></svg>