<svg xmlns="http://www.w3.org/2000/svg" width="1024" height="1024" viewBox="0 0 1024 1024">
  <defs>
    <style>
      .cls-1 {
        fill: #faf7f4;
      }

      .cls-2 {
        fill: #032941;
      }
    </style>
  </defs>
  <g id="BG">
    <rect class="cls-1" width="1024" height="1024"/>
  </g>
  <g id="BigIcon">
    <g>
      <path class="cls-2" d="M517.69,865.37c196.09-6.19,344.77-150.53,375.68-316.8,36-193.65-71-368.86-232.66-434-164.22-66.18-362-15.73-466.51,131.18C90.55,391.53,90,618.45,255.57,771l-36.06,64.7c-46.81-42-86.92-88.82-115.85-144.59-40.26-77.63-56.48-160.26-52-247.41Q59.27,297,151,182.62c65.89-82.1,150.91-135.24,253.31-158.14C540.74-6,667.6,19.42,781.39,100.56,878,169.45,940.11,263.27,963.1,379.91c29.56,150-7,284.31-106.46,400.22-68.78,80.15-156.91,128.7-260.31,149.39-29.86,6-60.19,8.07-90.67,7.44-3.71-.08-7.42-.67-12.41-1.15Z"/>
      <path class="cls-2" d="M599.67,363.91,649,386.15c-2.78,7.88-6,14.26-7.09,21-.82,5.07-.43,11.57,2.18,15.69,4.71,7.41,12.33,6.31,16.86-1.46,3.52-6.05,6.64-12.32,10.79-20.1L711,425.33c-17.16,42.73-33.34,84.06-50.36,125-13.18,31.76-36.32,52.82-70.4,60.54-9.47,2.14-15.09,6.52-18.52,16.41-12,34.68-16.59,36.31-50.36,22.23-2.17-.9-4.29-1.94-7.32-3.31,11.41-20.29,23.62-40.45,12.26-64.92-6.72-14.48-17.17-24.74-31.89-30.77-29.7-12.18-62.46,6.59-78.45,45.53-4.11-1.82-8.24-3.6-12.33-5.47-18-8.21-22.34-14.14-13.63-31.63,8.27-16.61,2.94-28.07-5.3-41.34-17.77-28.58-34.35-57.84-42.56-90.95-.68-2.75-1.47-5.48-2.05-8.25-4.53-21.81-3.88-22.78,16.6-31.74,20.7-9.05,39.09-8.38,55.56,9.56,6.23,6.79,15,11.53,23.22,16.15,23.84,13.41,34.26,34.34,35.78,60.76.32,5.66.62,11.46,2.08,16.88,2.07,7.73,8.78,9.91,13.52,3.64,3.9-5.14,5.72-12.68,6.26-19.33.56-6.93-1.38-14.08-2.47-21.1-3.39-22-15.16-38.54-33.25-50.86-8.23-5.61-16.92-10.55-25-16.3-8.33-5.89-10.76-12.49-7.23-22.17,6-16.44,12.8-32.59,19.41-48.79,3.17-7.78,9.74-10.71,17.35-9,12.8,2.8,25.35,6.66,39.64,10.51-3.69,8.87-6.58,15.66-9.32,22.51-1.41,3.5-3,7-3.72,10.68-1.44,7.69,2.23,14,8.88,15.57,7.56,1.77,13-1.18,16-8.36,3.38-8.25,6.59-16.57,10.21-25.72,19,3,36.76,6.71,52.19,19.22-2.8,7.64-5.76,15-8.15,22.59a37.51,37.51,0,0,0-2.06,12.45c.24,6.3,3.85,10.51,10.35,11.76,6.14,1.18,10-1.55,12.31-7.05C591.7,382.11,595.28,374,599.67,363.91Z"/>
      <path class="cls-2" d="M377.16,602.26l36,12.71c1.11,4.35,2.16,8.44,3.2,12.53,8.07,31.75,40.4,49.57,70.75,37,12.65-5.23,22.41-3.72,33.15,2.48,9,5.18,18.19,9.94,28.07,15.31-11.53,33.75-22.89,66.71-34,99.74-17.23,51.06-35.44,101.84-51.15,153.37-15.53,50.93-56.56,76.06-105.89,76.58-60.83.64-104.54-37.65-121-82.83-10.7-29.31-9.54-57.54,6.12-84.83C269,797.88,296,751.6,322.2,704.91c16.7-29.74,32.29-60.1,48.37-90.19C372.57,611,374.53,607.23,377.16,602.26ZM374.73,823.1c-14.78.69-25.79,0-36.3,1.91-50,9.26-69.73,47-63.13,88.68,5.14,32.49,33.93,58.36,65.77,62.2,32.93,4,67.7-15.45,81.54-45.53,12.9-28,5.18-64.42-20.27-86.55-8.35-7.27-8.59-12.48-4.57-21.6,16.21-36.76,31.84-73.78,47.37-110.83,5.93-14.12,1.09-20-14.78-19.75Z"/>
      <path class="cls-2" d="M399.29,363.2c-24.39-7.29-45.39-.24-67.39,8.8-5.23-27.83-7.56-54.79,1-81.73,4-12.74,14.43-17,26.23-18.36,12.19-1.36,23.54,2.27,28.95,13.68a121.17,121.17,0,0,1,10.82,34.83C400.7,333.84,399.29,347.7,399.29,363.2Z"/>
      <path class="cls-2" d="M586.33,328,535.2,309c6.57-16.35,13.24-33.19,20.1-50,11.28-27.53,10.09-26.88,40.74-18.22,7.11,2,13.66,6,21.75,9.61C607.06,276.9,596.69,302.44,586.33,328Z"/>
      <path class="cls-2" d="M627.48,228.28l-50.32-17a80.38,80.38,0,0,1,2.58-9.28c5.53-14.07,10.73-28.32,17.09-42,5.63-12.13,14.38-21.79,29.19-21.27,19.08.68,30.61,18.94,23.49,38.3C643,194.67,634.71,211.65,627.48,228.28Z"/>
      <path class="cls-2" d="M506.21,607.71c-.09,19.42-15.66,34.77-35.3,34.82-19.4,0-34.39-15.37-34.47-35.44s15-36.06,34.05-36S506.3,588.36,506.21,607.71Z"/>
      <path class="cls-2" d="M644.24,262.17c7.82-17.94,14.61-35,22.65-51.47,5.5-11.26,16.65-15.56,28.69-13.1a25.25,25.25,0,0,1,20,22.81,32.51,32.51,0,0,1-2.28,13.78c-6.32,15.7-13.2,31.18-19.88,46.75Z"/>
      <path class="cls-2" d="M537.56,229.48l-27.28,67.28-50-15.29c7.3-17.33,14.41-35.09,22.26-52.51,4.35-9.66,10.53-12.78,20.75-10.26C514.56,221.48,525.54,225.64,537.56,229.48Z"/>
      <path class="cls-2" d="M657.47,367.48l-49.06-21.35c8.29-19.37,16.89-39.47,25.54-59.7,17.43-2.13,31.11,5.38,44.62,13.1,5.64,3.21,3.32,7.75,1.41,12.36C672.4,330.2,665.08,348.61,657.47,367.48Z"/>
      <path class="cls-2" d="M545.83,208.23c-8.84-3.09-16.25-6-23.87-8.23s-15.5-3.7-25.1-5.93c7.89-17.9,14.78-35.66,23.44-52.5,6.5-12.65,21.93-16.19,34.39-9.87S571.35,150,565.46,164C559.3,178.75,552.53,193.2,545.83,208.23Z"/>
      <path class="cls-2" d="M743.14,352.93c-10.81-6.37-20.53-12-30.16-17.8-6.65-4-8.79-9.38-4.91-16.69,4.41-8.3,7.87-17.18,12.95-25,7.18-11.1,18.34-13.4,29.57-7.37,9.95,5.35,14.4,16.61,9.91,27.91C755.46,326.62,749.45,338.9,743.14,352.93Z"/>
      <path class="cls-2" d="M679.72,385.29c4.41-10.4,8.1-19.59,12.26-28.56,1.35-2.9,3.95-5.24,7.09-9.26l37.66,22.1c-6.28,13.9-12.09,26.75-18.28,40.47Z"/>
      <path class="cls-2" d="M298.55,900.73c1.79-7.78,2.6-16,5.57-23.27,10-24.6,36.49-34.93,60.81-24.07,13,5.79,26.06,11.88,33.95,24.59,13.78,22.2,3.72,53.14-22.36,67.37-17.5,9.55-36.34,12.41-54.1,1.62C305.73,936.83,299.09,920.3,298.55,900.73Z"/>
    </g>
  </g>
</svg>
