<svg xmlns="http://www.w3.org/2000/svg" width="1024" height="1024" viewBox="0 0 1024 1024">
  <g id="Icon">
    <g>
      <path d="M259.27,629.18C328,627,380.15,576.4,391,518.11c12.63-67.9-24.89-129.33-81.57-152.17-57.58-23.2-126.94-5.51-163.56,46-36.34,51.11-36.54,130.67,21.52,184.17l-12.65,22.68c-16.41-14.73-30.47-31.14-40.61-50.69C100,540.88,94.3,511.91,95.88,481.36q2.66-51.45,34.82-91.56c23.11-28.78,52.91-47.41,88.82-55.44,47.83-10.7,92.31-1.78,132.2,26.67,33.87,24.16,55.65,57.05,63.71,98,10.36,52.57-2.45,99.68-37.33,140.32-24.11,28.1-55,45.12-91.26,52.37a146,146,0,0,1-31.79,2.61c-1.3,0-2.6-.23-4.35-.4C253.61,645.48,256.42,637.38,259.27,629.18Z"/>
      <path d="M288,453.37l17.29,7.79c-1,2.77-2.1,5-2.48,7.36a8.55,8.55,0,0,0,.76,5.5c1.65,2.6,4.33,2.22,5.91-.51,1.24-2.12,2.33-4.32,3.79-7.05l13.77,8.44c-6,15-11.69,29.47-17.65,43.84-4.63,11.14-12.74,18.52-24.69,21.22a8,8,0,0,0-6.49,5.76c-4.22,12.16-5.82,12.73-17.66,7.79-.76-.31-1.5-.68-2.56-1.16,4-7.11,8.28-14.18,4.3-22.76a20.58,20.58,0,0,0-11.18-10.79c-10.42-4.27-21.9,2.31-27.51,16-1.44-.64-2.89-1.27-4.32-1.92-6.31-2.88-7.83-5-4.78-11.09,2.9-5.82,1-9.84-1.86-14.49-6.23-10-12-20.28-14.92-31.89-.24-1-.52-1.92-.72-2.9-1.59-7.64-1.36-8,5.82-11.12s13.71-2.94,19.48,3.35c2.18,2.38,5.26,4,8.14,5.66,8.36,4.7,12,12,12.54,21.3a29.87,29.87,0,0,0,.73,5.92c.73,2.71,3.08,3.48,4.75,1.28a13.49,13.49,0,0,0,2.19-6.78c.19-2.43-.49-4.94-.87-7.4-1.19-7.7-5.31-13.51-11.66-17.83-2.88-2-5.93-3.7-8.77-5.71s-3.78-4.38-2.54-7.78c2.11-5.76,4.49-11.42,6.81-17.1a5,5,0,0,1,6.08-3.17c4.49,1,8.89,2.33,13.9,3.68-1.3,3.11-2.31,5.49-3.27,7.9a20.47,20.47,0,0,0-1.3,3.74c-.51,2.69.78,4.91,3.11,5.46a4.44,4.44,0,0,0,5.6-2.93c1.19-2.9,2.31-5.81,3.58-9,6.66,1.07,12.89,2.35,18.3,6.74-1,2.68-2,5.27-2.86,7.92a13.07,13.07,0,0,0-.72,4.36,4.1,4.1,0,0,0,3.63,4.13c2.15.41,3.49-.55,4.31-2.48C285.21,459.75,286.47,456.91,288,453.37Z"/>
      <path d="M210,536.93l12.64,4.46c.39,1.52.75,3,1.12,4.39,2.83,11.13,14.17,17.38,24.81,13,4.43-1.84,7.85-1.31,11.62.87,3.14,1.81,6.38,3.48,9.84,5.36-4,11.84-8,23.39-11.93,35-6,17.91-12.43,35.71-17.94,53.78-5.44,17.85-19.82,26.67-37.12,26.85a44,44,0,0,1-42.44-29c-3.75-10.28-3.35-20.18,2.14-29.75,9.35-16.28,18.8-32.51,28-48.88,5.85-10.42,11.32-21.07,17-31.62C208.39,540,209.08,538.67,210,536.93Zm-.85,77.43c-5.18.24-9,0-12.72.67-17.53,3.25-24.45,16.49-22.14,31.09,1.8,11.39,11.9,20.47,23.06,21.81,11.55,1.39,23.74-5.42,28.59-16,4.53-9.83,1.82-22.59-7.1-30.35-2.93-2.55-3-4.37-1.61-7.57,5.68-12.89,11.16-25.87,16.61-38.86,2.08-5,.38-7-5.18-6.92Z"/>
      <path d="M217.76,453.12c-8.56-2.56-15.92-.09-23.63,3.08-1.84-9.76-2.65-19.21.34-28.65,1.41-4.47,5.06-6,9.19-6.44,4.28-.48,8.26.8,10.15,4.8a42.16,42.16,0,0,1,3.8,12.21C218.25,442.82,217.76,447.68,217.76,453.12Z"/>
      <path d="M283.33,440.77l-17.92-6.64c2.3-5.73,4.64-11.64,7-17.52,4-9.65,3.54-9.42,14.29-6.39,2.49.71,4.79,2.1,7.62,3.37Z"/>
      <path d="M297.76,405.81l-17.64-5.95a25.83,25.83,0,0,1,.9-3.25c1.94-4.94,3.76-9.93,6-14.74,2-4.25,5.05-7.64,10.24-7.45,6.69.24,10.73,6.64,8.23,13.42C303.21,394,300.29,400,297.76,405.81Z"/>
      <path d="M255.24,538.84a12.25,12.25,0,0,1-12.38,12.21c-6.8,0-12.05-5.39-12.08-12.42S236,526,242.72,526,255.27,532.06,255.24,538.84Z"/>
      <path d="M303.64,417.7c2.74-6.29,5.12-12.28,7.94-18.05,1.93-3.95,5.84-5.45,10.05-4.59a8.85,8.85,0,0,1,7,8,11.45,11.45,0,0,1-.8,4.84c-2.22,5.5-4.63,10.93-7,16.38Z"/>
      <path d="M266.23,406.24c-3.48,8.59-6.52,16.1-9.56,23.58l-17.55-5.36c2.56-6.07,5.06-12.3,7.81-18.41,1.52-3.38,3.69-4.48,7.27-3.6C258.17,403.43,262,404.89,266.23,406.24Z"/>
      <path d="M308.27,454.62l-17.2-7.49c2.91-6.79,5.92-13.84,9-20.93,6.11-.74,10.9,1.89,15.64,4.59,2,1.13,1.17,2.72.5,4.34C313.51,441.55,310.94,448,308.27,454.62Z"/>
      <path d="M269.13,398.78c-3.1-1.08-5.69-2.11-8.37-2.88s-5.43-1.3-8.8-2.08c2.77-6.28,5.19-12.5,8.22-18.41,2.28-4.43,7.69-5.67,12.06-3.46s5.84,6.4,3.77,11.34C273.86,388.45,271.48,393.51,269.13,398.78Z"/>
      <path d="M338.31,449.52c-3.79-2.24-7.2-4.21-10.57-6.24-2.33-1.41-3.09-3.29-1.72-5.86,1.54-2.91,2.75-6,4.54-8.77,2.51-3.89,6.43-4.7,10.36-2.58a7.59,7.59,0,0,1,3.48,9.78C342.63,440.29,340.52,444.6,338.31,449.52Z"/>
      <path d="M316.07,460.86c1.55-3.64,2.85-6.87,4.3-10a21.62,21.62,0,0,1,2.49-3.25l13.2,7.75c-2.2,4.87-4.23,9.38-6.41,14.19Z"/>
      <path d="M182.43,641.58c.63-2.73.92-5.6,2-8.16,3.5-8.63,12.79-12.25,21.32-8.44,4.55,2,9.13,4.17,11.9,8.62,4.83,7.79,1.3,18.63-7.84,23.62-6.14,3.35-12.74,4.35-19,.57C185,654.24,182.62,648.44,182.43,641.58Z"/>
    </g>
  </g>
  <g id="Text">
    <g>
      <path d="M521.11,485l-19.57-34.57H486.67V485H465.9v-93.8h39.53A34.7,34.7,0,0,1,521.64,395,28.2,28.2,0,0,1,533,405.36,27.42,27.42,0,0,1,537.05,420,26.06,26.06,0,0,1,532.56,435a30,30,0,0,1-11.86,10.25L544.29,485Zm-35-76.11v24.79h15.55q7,0,10.78-3.29c2.55-2.19,3.82-5.24,3.82-9.18a11.2,11.2,0,0,0-3.88-9q-3.9-3.29-10.72-3.28Z"/>
      <path d="M574.71,446.17v21.17h43.68V485H554.47v-93.8h63.25v17.69h-43v20.36H613v16.89Z"/>
      <path d="M711.92,485H691.29l-6-20.24H651.08l-6,20.24h-20l29.48-93.8h27.74Zm-44.09-76.38-11.65,39.13h24L668.5,408.65Z"/>
      <path d="M737.72,480.47a42.48,42.48,0,0,1-16.35-17.15,57.33,57.33,0,0,1,0-50.38,42.51,42.51,0,0,1,16.35-17.16,46.73,46.73,0,0,1,24-6.16q15.94,0,26.73,8.37t14.81,23.92l-20,2.55a21.91,21.91,0,0,0-7.9-11.66,22.63,22.63,0,0,0-13.81-4.15q-11.39,0-18.15,8t-6.77,21.44q0,13.53,6.83,21.5t18.23,8a22.9,22.9,0,0,0,13.87-4.16,22.37,22.37,0,0,0,8.1-11.65l20.1,2.54q-4.15,15.56-15.07,23.92t-26.87,8.38A46.91,46.91,0,0,1,737.72,480.47Z"/>
      <path d="M874.73,428.21v-37H895.5V485H874.73V446.7H838.15V485H817.38v-93.8h20.77v37Z"/>
    </g>
    <g>
      <path d="M483,542.83l-7.26-12.17H469.2v12.17h-3.78v-29.4h10.5a10,10,0,0,1,4.74,1.12,8.3,8.3,0,0,1,4.5,7.49,8.19,8.19,0,0,1-1.6,5,8.81,8.81,0,0,1-4.07,3.09l7.77,12.72Zm-13.81-26v10.5h6.51a5.83,5.83,0,0,0,4.15-1.4,5.62,5.62,0,0,0,0-7.69,5.83,5.83,0,0,0-4.15-1.41Z"/>
      <path d="M507.88,533.38H492.13a7.8,7.8,0,0,0,1.95,5,6,6,0,0,0,4.52,1.76,6.65,6.65,0,0,0,3.4-.84,5.3,5.3,0,0,0,2.22-2.43l3.2.55a8.6,8.6,0,0,1-3.36,4.32,9.65,9.65,0,0,1-5.46,1.55,10,10,0,0,1-5.27-1.38,9.3,9.3,0,0,1-3.55-3.87,13.46,13.46,0,0,1,0-11.33,9.21,9.21,0,0,1,3.48-3.87,10.32,10.32,0,0,1,10.17-.08,8.8,8.8,0,0,1,3.42,3.65,11.48,11.48,0,0,1,1.22,5.34A9,9,0,0,1,507.88,533.38Zm-13.63-7.26a7.32,7.32,0,0,0-2,4.33H504.6a6.87,6.87,0,0,0-2-4.31,5.9,5.9,0,0,0-4.22-1.57A5.72,5.72,0,0,0,494.25,526.12Z"/>
      <path d="M515.56,518.05H512v-3.77h3.57Zm0,24.78H512v-21h3.48Z"/>
      <path d="M520.77,542.83v-21h3.36v3.79h.21q2.73-4.2,7.06-4.2a6.4,6.4,0,0,1,5.12,2.2,8.88,8.88,0,0,1,1.89,6v13.23h-3.57V530a6.23,6.23,0,0,0-1.17-4,4.07,4.07,0,0,0-3.32-1.42,5.67,5.67,0,0,0-3.07.86,5.91,5.91,0,0,0-2.16,2.35,7,7,0,0,0-.78,3.3v11.75Z"/>
      <path d="M550.38,516.38a2,2,0,0,0-1.59.6,3,3,0,0,0-.51,1.91v2.94h5.88v2.95h-5.88v18.05h-3.57V524.78h-4.2v-2.95h4.2v-2.94a5.8,5.8,0,0,1,1.3-4,4.85,4.85,0,0,1,3.74-1.41h4.62v3Z"/>
      <path d="M559.77,541.87a9.41,9.41,0,0,1-3.51-3.87,13.37,13.37,0,0,1,0-11.33,9.41,9.41,0,0,1,3.51-3.87,10.47,10.47,0,0,1,10.39,0,9.39,9.39,0,0,1,3.53,3.87,13.37,13.37,0,0,1,0,11.33,9.39,9.39,0,0,1-3.53,3.87,10.47,10.47,0,0,1-10.39,0Zm9.91-3.84a10.39,10.39,0,0,0,0-11.39,6.38,6.38,0,0,0-9.41,0,10.39,10.39,0,0,0,0,11.39,6.38,6.38,0,0,0,9.41,0Z"/>
      <path d="M578.73,542.83v-21h3.36v3.79h.21a9.76,9.76,0,0,1,2.82-2.84,6.39,6.39,0,0,1,3.48-.95h1.68v3.24h-1.89a5.89,5.89,0,0,0-4.47,1.7,6.27,6.27,0,0,0-1.62,4.52v11.54Z"/>
      <path d="M596.12,541.87a9.39,9.39,0,0,1-3.53-3.87,13.37,13.37,0,0,1,0-11.33,9.41,9.41,0,0,1,3.51-3.87,9.53,9.53,0,0,1,5.1-1.38,9.19,9.19,0,0,1,5.59,1.72,8.76,8.76,0,0,1,3.23,4.78l-3.15.59a5.6,5.6,0,0,0-2.12-2.92,6.15,6.15,0,0,0-3.55-1,5.67,5.67,0,0,0-4.6,2,8.76,8.76,0,0,0-1.7,5.71,8.64,8.64,0,0,0,1.72,5.72,5.82,5.82,0,0,0,4.71,2.05,6.3,6.3,0,0,0,3.61-1,5.52,5.52,0,0,0,2.14-2.92l3.15.59a8.69,8.69,0,0,1-3.25,4.78,9.37,9.37,0,0,1-5.65,1.72A9.82,9.82,0,0,1,596.12,541.87Z"/>
      <path d="M631.69,533.38H615.94a7.75,7.75,0,0,0,2,5,5.94,5.94,0,0,0,4.51,1.76,6.62,6.62,0,0,0,3.4-.84,5.38,5.38,0,0,0,2.23-2.43l3.19.55a8.49,8.49,0,0,1-3.36,4.32,9.65,9.65,0,0,1-5.46,1.55,10,10,0,0,1-5.27-1.38,9.3,9.3,0,0,1-3.55-3.87,13.46,13.46,0,0,1,0-11.33,9.23,9.23,0,0,1,3.49-3.87,10.3,10.3,0,0,1,10.16-.08,8.8,8.8,0,0,1,3.42,3.65,11.48,11.48,0,0,1,1.22,5.34A9,9,0,0,1,631.69,533.38Zm-13.63-7.26a7.37,7.37,0,0,0-2,4.33h12.39a6.87,6.87,0,0,0-2-4.31,5.88,5.88,0,0,0-4.22-1.57A5.72,5.72,0,0,0,618.06,526.12Z"/>
      <path d="M635.64,542.83v-21H639v3.58h.21a7.91,7.91,0,0,1,2.75-2.95,7,7,0,0,1,3.68-1,5.72,5.72,0,0,1,3.57,1.15,6.45,6.45,0,0,1,2.18,3.26h.21c1.79-3,4.14-4.41,7.06-4.41a5.93,5.93,0,0,1,4.85,2.12,9,9,0,0,1,1.74,5.85v13.44h-3.57v-13a6.43,6.43,0,0,0-1-3.93,3.51,3.51,0,0,0-3-1.32,5,5,0,0,0-3.93,1.78,6.69,6.69,0,0,0-1.53,4.52v12h-3.57v-13a6.43,6.43,0,0,0-1-3.93,3.51,3.51,0,0,0-3-1.32,4.94,4.94,0,0,0-3.93,1.78,6.69,6.69,0,0,0-1.53,4.52v12Z"/>
      <path d="M688.18,533.38H672.43a7.75,7.75,0,0,0,2,5,5.94,5.94,0,0,0,4.51,1.76,6.62,6.62,0,0,0,3.4-.84,5.38,5.38,0,0,0,2.23-2.43l3.19.55a8.49,8.49,0,0,1-3.36,4.32,9.65,9.65,0,0,1-5.46,1.55,10,10,0,0,1-5.27-1.38,9.3,9.3,0,0,1-3.55-3.87,13.46,13.46,0,0,1,0-11.33,9.23,9.23,0,0,1,3.49-3.87,10.3,10.3,0,0,1,10.16-.08,8.8,8.8,0,0,1,3.42,3.65,11.48,11.48,0,0,1,1.22,5.34A9,9,0,0,1,688.18,533.38Zm-13.63-7.26a7.37,7.37,0,0,0-2,4.33h12.39a6.87,6.87,0,0,0-2-4.31,5.88,5.88,0,0,0-4.22-1.57A5.72,5.72,0,0,0,674.55,526.12Z"/>
      <path d="M692.13,542.83v-21h3.36v3.79h.21q2.73-4.2,7.06-4.2a6.4,6.4,0,0,1,5.12,2.2,8.88,8.88,0,0,1,1.89,6v13.23H706.2V530a6.18,6.18,0,0,0-1.18-4,4,4,0,0,0-3.31-1.42,5.65,5.65,0,0,0-3.07.86,5.91,5.91,0,0,0-2.16,2.35,7,7,0,0,0-.78,3.3v11.75Z"/>
      <path d="M721.11,542.83c-3.36,0-5-1.81-5-5.45v-12.6h-4.2v-2.95h4.2l1.68-5.66h1.89v5.66h6.09v2.95h-6.09v12.6a2.57,2.57,0,0,0,.5,1.76,2.1,2.1,0,0,0,1.6.54h4.2v3.15Z"/>
      <path d="M742.74,533.8H728v-3.35h14.7Z"/>
      <path d="M751.14,542.83h-3.57v-29.4h3.57Z"/>
      <path d="M774.49,533.38H758.74a7.8,7.8,0,0,0,2,5,6,6,0,0,0,4.52,1.76,6.62,6.62,0,0,0,3.4-.84,5.38,5.38,0,0,0,2.23-2.43l3.19.55a8.49,8.49,0,0,1-3.36,4.32,9.65,9.65,0,0,1-5.46,1.55,10,10,0,0,1-5.27-1.38,9.3,9.3,0,0,1-3.55-3.87,13.46,13.46,0,0,1,0-11.33,9.28,9.28,0,0,1,3.48-3.87,10.32,10.32,0,0,1,10.17-.08,8.8,8.8,0,0,1,3.42,3.65,11.48,11.48,0,0,1,1.22,5.34A9,9,0,0,1,774.49,533.38Zm-13.63-7.26a7.25,7.25,0,0,0-2,4.33h12.38a6.81,6.81,0,0,0-2-4.31,5.88,5.88,0,0,0-4.22-1.57A5.72,5.72,0,0,0,760.86,526.12Z"/>
      <path d="M796.71,540.1v2.73h-1.47a3.58,3.58,0,0,1-2.65-.92,3.62,3.62,0,0,1-.92-2.65v-.42h-.21a8.64,8.64,0,0,1-3.21,3.3,8.53,8.53,0,0,1-4.27,1.11,7.15,7.15,0,0,1-4.87-1.67,5.71,5.71,0,0,1-1.93-4.54,6.13,6.13,0,0,1,2.23-4.92,8.61,8.61,0,0,1,5.75-1.88H791v-.85a5,5,0,0,0-1.18-3.59,4.66,4.66,0,0,0-3.53-1.23,5.94,5.94,0,0,0-3.42.92,4.86,4.86,0,0,0-1.91,2.77l-3.19-.55a8.78,8.78,0,0,1,3-4.59,8.62,8.62,0,0,1,5.54-1.7,8.22,8.22,0,0,1,6.12,2.18,7.89,7.89,0,0,1,2.16,5.79v9.24a1.79,1.79,0,0,0,.29,1.12,1.19,1.19,0,0,0,1,.35Zm-8.88-.79a6,6,0,0,0,2.35-2.29,6.8,6.8,0,0,0,.86-3.43v-.42h-5.67a5.49,5.49,0,0,0-3.34,1,3.17,3.17,0,0,0-1.28,2.71,3,3,0,0,0,1,2.41,4.08,4.08,0,0,0,2.77.86A6.93,6.93,0,0,0,787.83,539.31Z"/>
      <path d="M799.86,542.83v-21h3.36v3.79h.21a9.86,9.86,0,0,1,2.81-2.84,6.45,6.45,0,0,1,3.49-.95h1.68v3.24h-1.89a5.86,5.86,0,0,0-4.47,1.7,6.27,6.27,0,0,0-1.62,4.52v11.54Z"/>
      <path d="M814.14,542.83v-21h3.36v3.79h.21q2.73-4.2,7-4.2a6.4,6.4,0,0,1,5.13,2.2,8.88,8.88,0,0,1,1.89,6v13.23h-3.57V530a6.18,6.18,0,0,0-1.18-4,4.05,4.05,0,0,0-3.32-1.42,5.61,5.61,0,0,0-3.06.86,5.77,5.77,0,0,0-2.16,2.35,7,7,0,0,0-.78,3.3v11.75Z"/>
      <path d="M840.35,518.05h-3.57v-3.77h3.57Zm-.05,24.78h-3.48v-21h3.48Z"/>
      <path d="M845.55,542.83v-21h3.36v3.79h.21c1.82-2.8,4.18-4.2,7.06-4.2a6.38,6.38,0,0,1,5.12,2.2,8.88,8.88,0,0,1,1.89,6v13.23h-3.57V530a6.23,6.23,0,0,0-1.17-4,4.07,4.07,0,0,0-3.32-1.42,5.67,5.67,0,0,0-3.07.86,5.91,5.91,0,0,0-2.16,2.35,7,7,0,0,0-.78,3.3v11.75Z"/>
      <path d="M870.27,549.45a8.16,8.16,0,0,1-3.3-4.94l3.15-.54a5.09,5.09,0,0,0,2.23,3,7.79,7.79,0,0,0,4.28,1.07,6.09,6.09,0,0,0,4.77-1.7q1.53-1.7,1.53-5.22v-2.74h-.21a7.94,7.94,0,0,1-2.92,2.92,7.86,7.86,0,0,1-4.09,1.08,8.14,8.14,0,0,1-4.64-1.37,9,9,0,0,1-3.17-3.76,13.24,13.24,0,0,1,0-10.75,9,9,0,0,1,3.17-3.76,8.13,8.13,0,0,1,4.64-1.36,8,8,0,0,1,4.12,1.07,8.77,8.77,0,0,1,3.1,3.13h.21v-3.79h3.36v19.33a10.14,10.14,0,0,1-2.6,7.41,9.69,9.69,0,0,1-7.27,2.67A10.8,10.8,0,0,1,870.27,549.45Zm10.86-12.22a8.75,8.75,0,0,0,0-10.63,6,6,0,0,0-4.71-2,5.47,5.47,0,0,0-4.45,2,9.63,9.63,0,0,0,0,10.75,5.47,5.47,0,0,0,4.45,2A6,6,0,0,0,881.13,537.23Z"/>
      <path d="M472.35,566.78a2,2,0,0,0-1.6.6,3,3,0,0,0-.5,1.91v3h5.88v2.94h-5.88v18.06h-3.57V575.18h-4.2v-2.94h4.2v-3a5.75,5.75,0,0,1,1.3-4,4.83,4.83,0,0,1,3.74-1.41h4.62v2.95Z"/>
      <path d="M481.73,592.27a9.42,9.42,0,0,1-3.5-3.86,13.39,13.39,0,0,1,0-11.34,9.39,9.39,0,0,1,3.5-3.87,10.49,10.49,0,0,1,10.4,0,9.39,9.39,0,0,1,3.53,3.87,13.39,13.39,0,0,1,0,11.34,9.42,9.42,0,0,1-3.53,3.86,10.42,10.42,0,0,1-10.4,0Zm9.91-3.84a10.34,10.34,0,0,0,0-11.39,6.37,6.37,0,0,0-9.4,0,10.39,10.39,0,0,0,0,11.39,6.37,6.37,0,0,0,9.4,0Z"/>
      <path d="M500.7,593.24v-21h3.36V576h.21a9.62,9.62,0,0,1,2.81-2.84,6.45,6.45,0,0,1,3.49-.94h1.68v3.23h-1.89a5.9,5.9,0,0,0-4.48,1.7,6.27,6.27,0,0,0-1.61,4.52v11.55Z"/>
      <path d="M528.21,580v9.88H542.7v3.36H524.43V563.83h18.06v3.37H528.21v9.45H541V580Z"/>
      <path d="M547.52,593.24v-21h3.36V576h.21q2.74-4.2,7.06-4.2a6.38,6.38,0,0,1,5.12,2.2,8.85,8.85,0,0,1,1.9,6v13.24h-3.58V580.43a6.23,6.23,0,0,0-1.17-4A4.07,4.07,0,0,0,557.1,575a5.61,5.61,0,0,0-3.06.86,5.86,5.86,0,0,0-2.17,2.35,7,7,0,0,0-.78,3.3v11.76Z"/>
      <path d="M570.21,593.24V563.83h3.56v12H574a8.69,8.69,0,0,1,2.86-2.92,7.35,7.35,0,0,1,4-1.07A6.42,6.42,0,0,1,586,574a8.94,8.94,0,0,1,1.88,6v13.24h-3.57V580.43a6.23,6.23,0,0,0-1.17-4,4.07,4.07,0,0,0-3.32-1.42,5.67,5.67,0,0,0-3.07.86,5.91,5.91,0,0,0-2.16,2.35,7,7,0,0,0-.78,3.3v11.76Z"/>
      <path d="M610.94,590.5v2.74h-1.47a3.24,3.24,0,0,1-3.57-3.57v-.42h-.21a8.68,8.68,0,0,1-3.21,3.29,8.47,8.47,0,0,1-4.26,1.12,7.14,7.14,0,0,1-4.87-1.68,5.72,5.72,0,0,1-1.94-4.54,6.14,6.14,0,0,1,2.23-4.91,8.57,8.57,0,0,1,5.75-1.89h5.88v-.85a5.06,5.06,0,0,0-1.17-3.59,4.67,4.67,0,0,0-3.53-1.23,5.94,5.94,0,0,0-3.42.92,4.86,4.86,0,0,0-1.91,2.77l-3.2-.54a8.78,8.78,0,0,1,3-4.6,8.58,8.58,0,0,1,5.54-1.7,8.2,8.2,0,0,1,6.11,2.18,7.89,7.89,0,0,1,2.16,5.79V589a1.71,1.71,0,0,0,.3,1.11,1.16,1.16,0,0,0,1,.35Zm-8.88-.79a5.88,5.88,0,0,0,2.35-2.29,6.69,6.69,0,0,0,.86-3.42v-.42H599.6a5.45,5.45,0,0,0-3.33.94,3.15,3.15,0,0,0-1.29,2.71,3,3,0,0,0,1,2.41,4.1,4.1,0,0,0,2.77.86A6.88,6.88,0,0,0,602.06,589.71Z"/>
      <path d="M614.09,593.24v-21h3.36V576h.21c1.82-2.8,4.18-4.2,7.06-4.2a6.38,6.38,0,0,1,5.12,2.2,8.9,8.9,0,0,1,1.89,6v13.24h-3.57V580.43a6.23,6.23,0,0,0-1.17-4,4.07,4.07,0,0,0-3.32-1.42,5.67,5.67,0,0,0-3.07.86,5.91,5.91,0,0,0-2.16,2.35,7,7,0,0,0-.78,3.3v11.76Z"/>
      <path d="M640.09,592.27a9.42,9.42,0,0,1-3.53-3.86,13.39,13.39,0,0,1,0-11.34,9.41,9.41,0,0,1,3.51-3.87,9.56,9.56,0,0,1,5.1-1.38,9.19,9.19,0,0,1,5.59,1.72,8.65,8.65,0,0,1,3.23,4.79l-3.15.58a5.54,5.54,0,0,0-2.12-2.92,6.13,6.13,0,0,0-3.55-1,5.67,5.67,0,0,0-4.6,2,10.41,10.41,0,0,0,0,11.43,5.82,5.82,0,0,0,4.71,2,6.3,6.3,0,0,0,3.61-1,5.52,5.52,0,0,0,2.14-2.92l3.15.59a8.6,8.6,0,0,1-3.25,4.78,9.36,9.36,0,0,1-5.65,1.73A9.83,9.83,0,0,1,640.09,592.27Z"/>
      <path d="M675.67,583.79H659.92a7.69,7.69,0,0,0,2,5,6,6,0,0,0,4.51,1.76,6.78,6.78,0,0,0,3.41-.83,5.43,5.43,0,0,0,2.22-2.44l3.19.55a8.49,8.49,0,0,1-3.36,4.32,9.63,9.63,0,0,1-5.46,1.56,10,10,0,0,1-5.27-1.39,9.4,9.4,0,0,1-3.55-3.86,12.38,12.38,0,0,1-1.26-5.67,12.58,12.58,0,0,1,1.24-5.67A9.3,9.3,0,0,1,661,573.2a10.3,10.3,0,0,1,10.16-.08,9,9,0,0,1,3.43,3.65,11.47,11.47,0,0,1,1.21,5.34A9.16,9.16,0,0,1,675.67,583.79ZM662,576.52a7.32,7.32,0,0,0-2,4.33h12.39a6.9,6.9,0,0,0-2-4.31,5.86,5.86,0,0,0-4.22-1.57A5.68,5.68,0,0,0,662,576.52Z"/>
      <path d="M682.68,592.27a9,9,0,0,1-3.19-3.86,14.67,14.67,0,0,1,0-11.34,9,9,0,0,1,3.19-3.87,8.24,8.24,0,0,1,4.7-1.38,8.37,8.37,0,0,1,4.18,1,7.67,7.67,0,0,1,3,2.94h.21v-12h3.57v29.41h-3.36v-3.78h-.21a8.71,8.71,0,0,1-3.15,3.12,8.67,8.67,0,0,1-8.9-.31Zm10.23-3.89a9.66,9.66,0,0,0,0-11.29A6,6,0,0,0,688.1,575a5.48,5.48,0,0,0-4.54,2,10.78,10.78,0,0,0,0,11.43,5.48,5.48,0,0,0,4.54,2A6,6,0,0,0,692.91,588.38Z"/>
      <path d="M735.05,593.24h-3.82l-2.48-7.56h-12.3L714,593.24h-3.7l10-29.41H725ZM722.5,567.41l-5,15.12h10.2l-5-15.12Z"/>
      <path d="M738,593.24v-21h3.36V576h.21a9.76,9.76,0,0,1,2.82-2.84,6.41,6.41,0,0,1,3.48-.94h1.68v3.23h-1.89a5.89,5.89,0,0,0-4.47,1.7,6.27,6.27,0,0,0-1.62,4.52v11.55Z"/>
      <path d="M752.27,593.24v-21h3.36v3.57h.21a7.81,7.81,0,0,1,2.75-2.94,6.89,6.89,0,0,1,3.68-1,5.72,5.72,0,0,1,3.57,1.15,6.43,6.43,0,0,1,2.18,3.26h.21c1.79-2.94,4.15-4.41,7.06-4.41a5.91,5.91,0,0,1,4.85,2.12,9,9,0,0,1,1.74,5.85v13.45h-3.57v-13a6.36,6.36,0,0,0-1-3.93,3.51,3.51,0,0,0-3-1.32,5,5,0,0,0-3.93,1.78,6.71,6.71,0,0,0-1.53,4.52v12h-3.57v-13a6.36,6.36,0,0,0-1-3.93,3.51,3.51,0,0,0-3-1.32,4.93,4.93,0,0,0-3.92,1.78,6.66,6.66,0,0,0-1.54,4.52v12Z"/>
      <path d="M801.43,591.77a12.77,12.77,0,0,1-4.83-5.32,19.23,19.23,0,0,1,0-15.81,12.64,12.64,0,0,1,4.81-5.33,13.37,13.37,0,0,1,7.14-1.89,12.37,12.37,0,0,1,7.6,2.33,13,13,0,0,1,4.58,6.7l-3.4.58a9,9,0,0,0-3.28-4.64,9.19,9.19,0,0,0-5.5-1.61,8.91,8.91,0,0,0-7.24,3.15q-2.62,3.15-2.63,8.61t2.65,8.63a9.06,9.06,0,0,0,7.31,3.12,9.42,9.42,0,0,0,5.6-1.61,8.94,8.94,0,0,0,3.3-4.64l3.4.58a13,13,0,0,1-4.6,6.7,12.6,12.6,0,0,1-7.7,2.34A13.68,13.68,0,0,1,801.43,591.77Z"/>
      <path d="M828,592.27a9.45,9.45,0,0,1-3.51-3.86,13.39,13.39,0,0,1,0-11.34A9.41,9.41,0,0,1,828,573.2a10.47,10.47,0,0,1,10.39,0,9.32,9.32,0,0,1,3.53,3.87,13.39,13.39,0,0,1,0,11.34,9.36,9.36,0,0,1-3.53,3.86,10.4,10.4,0,0,1-10.39,0Zm9.91-3.84a10.39,10.39,0,0,0,0-11.39,6.38,6.38,0,0,0-9.41,0,10.39,10.39,0,0,0,0,11.39,6.38,6.38,0,0,0,9.41,0Z"/>
      <path d="M847,593.24v-21h3.36V576h.21q2.73-4.2,7.06-4.2a6.4,6.4,0,0,1,5.12,2.2,8.9,8.9,0,0,1,1.89,6v13.24h-3.57V580.43a6.23,6.23,0,0,0-1.17-4,4.07,4.07,0,0,0-3.32-1.42,5.67,5.67,0,0,0-3.07.86,5.91,5.91,0,0,0-2.16,2.35,7,7,0,0,0-.78,3.3v11.76Z"/>
      <path d="M876,593.24q-5,0-5-5.46v-12.6h-4.2v-2.94h4.2l1.68-5.67h1.89v5.67h6.09v2.94h-6.09v12.6a2.52,2.52,0,0,0,.51,1.76,2.06,2.06,0,0,0,1.59.54h4.2v3.16Z"/>
      <path d="M884.15,593.24v-21h3.36V576h.21a9.76,9.76,0,0,1,2.82-2.84,6.39,6.39,0,0,1,3.48-.94h1.68v3.23h-1.89a5.89,5.89,0,0,0-4.47,1.7,6.27,6.27,0,0,0-1.62,4.52v11.55Z"/>
      <path d="M901.52,592.27a9.45,9.45,0,0,1-3.51-3.86,13.39,13.39,0,0,1,0-11.34,9.41,9.41,0,0,1,3.51-3.87,10.47,10.47,0,0,1,10.39,0,9.39,9.39,0,0,1,3.53,3.87,13.39,13.39,0,0,1,0,11.34,9.42,9.42,0,0,1-3.53,3.86,10.4,10.4,0,0,1-10.39,0Zm9.91-3.84a10.39,10.39,0,0,0,0-11.39,6.38,6.38,0,0,0-9.41,0,10.39,10.39,0,0,0,0,11.39,6.38,6.38,0,0,0,9.41,0Z"/>
      <path d="M924.26,593.24h-3.57V563.83h3.57Z"/>
      <path d="M468.52,618.85H465v-3.77h3.57Zm0,24.78H465v-21h3.48Z"/>
      <path d="M473.73,643.63v-21h3.36v3.79h.21c1.82-2.8,4.17-4.21,7.06-4.21a6.4,6.4,0,0,1,5.12,2.21,8.88,8.88,0,0,1,1.89,6v13.23H487.8v-12.8a6.23,6.23,0,0,0-1.17-4,4.07,4.07,0,0,0-3.32-1.42,5.67,5.67,0,0,0-3.07.86,5.91,5.91,0,0,0-2.16,2.35,7,7,0,0,0-.78,3.3v11.75Z"/>
      <path d="M524.76,627V614.23h3.78v29.4h-3.78V630.4H510.27v13.23h-3.78v-29.4h3.78V627Z"/>
      <path d="M535.87,641.85a8.94,8.94,0,0,1-1.87-6V622.63h3.57v12.81a6.27,6.27,0,0,0,1.16,4A3.94,3.94,0,0,0,542,640.9a5.35,5.35,0,0,0,3-.86,5.89,5.89,0,0,0,2.12-2.35,7,7,0,0,0,.78-3.3V622.63h3.57v21h-3.36v-3.78h-.21c-1.82,2.81-4.13,4.2-6.93,4.2A6.29,6.29,0,0,1,535.87,641.85Z"/>
      <path d="M556.47,643.63v-21h3.36v3.58H560a7.84,7.84,0,0,1,2.75-3,7,7,0,0,1,3.68-1,5.72,5.72,0,0,1,3.57,1.16,6.46,6.46,0,0,1,2.18,3.25h.21c1.79-2.94,4.15-4.41,7.06-4.41a5.92,5.92,0,0,1,4.85,2.13,9,9,0,0,1,1.74,5.85v13.44h-3.57v-13a6.43,6.43,0,0,0-1-3.93,3.51,3.51,0,0,0-3-1.32,5,5,0,0,0-3.93,1.78,6.69,6.69,0,0,0-1.53,4.52v12h-3.57v-13a6.36,6.36,0,0,0-1-3.93,3.51,3.51,0,0,0-3-1.32,5,5,0,0,0-3.93,1.78,6.69,6.69,0,0,0-1.53,4.52v12Z"/>
      <path d="M609.18,640.9v2.73h-1.47a3.58,3.58,0,0,1-2.65-.92,3.62,3.62,0,0,1-.92-2.65v-.42h-.21a8.64,8.64,0,0,1-3.21,3.3,8.49,8.49,0,0,1-4.26,1.11,7.16,7.16,0,0,1-4.88-1.67,5.72,5.72,0,0,1-1.93-4.54,6.13,6.13,0,0,1,2.23-4.92,8.61,8.61,0,0,1,5.75-1.88h5.88v-.85a5,5,0,0,0-1.18-3.59,4.65,4.65,0,0,0-3.52-1.23,6,6,0,0,0-3.43.92,4.91,4.91,0,0,0-1.91,2.77l-3.19-.55a8.78,8.78,0,0,1,3-4.59,8.63,8.63,0,0,1,5.55-1.71,8.2,8.2,0,0,1,6.11,2.19,7.89,7.89,0,0,1,2.16,5.79v9.24a1.72,1.72,0,0,0,.3,1.12,1.15,1.15,0,0,0,1,.35Zm-8.88-.79a5.88,5.88,0,0,0,2.35-2.29,6.8,6.8,0,0,0,.86-3.43V634h-5.67a5.51,5.51,0,0,0-3.34.95,3.17,3.17,0,0,0-1.28,2.71,3,3,0,0,0,1,2.41,4.08,4.08,0,0,0,2.77.86A6.93,6.93,0,0,0,600.3,640.11Z"/>
      <path d="M612.33,643.63v-21h3.36v3.79h.21c1.82-2.8,4.17-4.21,7.06-4.21a6.4,6.4,0,0,1,5.12,2.21,8.88,8.88,0,0,1,1.89,6v13.23H626.4v-12.8a6.18,6.18,0,0,0-1.18-4,4,4,0,0,0-3.31-1.42,5.65,5.65,0,0,0-3.07.86,5.91,5.91,0,0,0-2.16,2.35,7,7,0,0,0-.78,3.3v11.75Z"/>
      <path d="M636.06,642.33a8.58,8.58,0,0,1-3.15-4.79l3.19-.54a4.65,4.65,0,0,0,2,3,7.12,7.12,0,0,0,3.8.94,6.33,6.33,0,0,0,3.36-.77,2.6,2.6,0,0,0,1.26-2.38,2.3,2.3,0,0,0-.69-1.74,4.73,4.73,0,0,0-1.73-1,25.2,25.2,0,0,0-2.83-.67,28.09,28.09,0,0,1-3.78-1,5.85,5.85,0,0,1-2.52-1.75,5,5,0,0,1-1-3.4,5.2,5.2,0,0,1,2.2-4.35,8.91,8.91,0,0,1,5.49-1.66,8.82,8.82,0,0,1,5.41,1.6,7.71,7.71,0,0,1,2.86,4.49l-3.15.55a4,4,0,0,0-1.72-2.6,6.07,6.07,0,0,0-3.4-.88,5.73,5.73,0,0,0-3,.69,2.33,2.33,0,0,0-1.15,2.16,2.24,2.24,0,0,0,1.28,2.16,14.45,14.45,0,0,0,3.89,1.12,29.8,29.8,0,0,1,3.86,1,5.79,5.79,0,0,1,2.52,1.76,5.2,5.2,0,0,1,1,3.46,5.45,5.45,0,0,1-2.25,4.6,11.07,11.07,0,0,1-11.82,0Z"/>
    </g>
  </g>
</svg>
